<?xml version="1.0" encoding="UTF-8" standalone="no"?>
<!-- Created with Inkscape (http://www.inkscape.org/) -->

<svg
   xmlns:dc="http://purl.org/dc/elements/1.1/"
   xmlns:cc="http://creativecommons.org/ns#"
   xmlns:rdf="http://www.w3.org/1999/02/22-rdf-syntax-ns#"
   xmlns:svg="http://www.w3.org/2000/svg"
   xmlns="http://www.w3.org/2000/svg"
   xmlns:xlink="http://www.w3.org/1999/xlink"
   version="1.1"
   width="64"
   height="22"
   id="svg3273">
  <defs
     id="defs3275">
    <linearGradient
       id="linearGradient4102">
      <stop
         id="stop4104"
         style="stop-color:#c95128;stop-opacity:1"
         offset="0" />
      <stop
         id="stop4106"
         style="stop-color:#e6754e;stop-opacity:1"
         offset="1" />
    </linearGradient>
    <linearGradient
       id="linearGradient3859">
      <stop
         id="stop3861"
         style="stop-color:#3c3b37;stop-opacity:1"
         offset="0" />
      <stop
         id="stop3863"
         style="stop-color:#4e4d49;stop-opacity:1"
         offset="1" />
    </linearGradient>
    <linearGradient
       id="linearGradient4095">
      <stop
         id="stop4097"
         style="stop-color:#131313;stop-opacity:1"
         offset="0" />
      <stop
         id="stop4099"
         style="stop-color:#131313;stop-opacity:0"
         offset="1" />
    </linearGradient>
    <linearGradient
       x1="50.739952"
       y1="18.306555"
       x2="51.010571"
       y2="3.8964059"
       id="linearGradient3991"
       xlink:href="#linearGradient4102"
       gradientUnits="userSpaceOnUse" />
    <linearGradient
       x1="-17.784681"
       y1="9.8260183"
       x2="-11.504409"
       y2="9.6024895"
       id="linearGradient3993"
       xlink:href="#linearGradient4095"
       gradientUnits="userSpaceOnUse"
       gradientTransform="matrix(0.88797735,0,0,0.87902198,44.895626,2.3346908)" />
    <linearGradient
       x1="-47.059258"
       y1="20.14957"
       x2="-46.978706"
       y2="1.0181593"
       id="linearGradient3995"
       xlink:href="#linearGradient3859"
       gradientUnits="userSpaceOnUse"
       gradientTransform="matrix(0.9757771,0,0,0.98628529,63.348591,0.09987579)" />
  </defs>
  <metadata
     id="metadata3278">
    <rdf:RDF>
      <cc:Work
         rdf:about="">
        <dc:format>image/svg+xml</dc:format>
        <dc:type
           rdf:resource="http://purl.org/dc/dcmitype/StillImage" />
        <dc:title></dc:title>
      </cc:Work>
    </rdf:RDF>
  </metadata>
  <g
     id="g4002">
    <g
       transform="matrix(-1,0,0,1,63.999996,0)"
       id="g3977">
      <rect
         width="63.000004"
         height="19"
         rx="4"
         ry="4"
         x="0.49999601"
         y="1.5"
         id="rect17456"
         style="color:#000000;fill:url(#linearGradient3991);fill-opacity:1;stroke:#282828;stroke-width:0.99999994;stroke-linecap:round;stroke-linejoin:miter;stroke-miterlimit:4;stroke-opacity:1;stroke-dasharray:none;stroke-dashoffset:0;marker:none;visibility:visible;display:inline;overflow:visible;enable-background:accumulate" />
      <rect
         width="61.470325"
         height="17.097975"
         rx="2.9653778"
         ry="3.0449691"
         x="1.0965401"
         y="2.4950619"
         id="rect3963"
         style="opacity:0.12396695;color:#000000;fill:none;stroke:#ffffff;stroke-width:0.93703973;stroke-linecap:round;stroke-linejoin:miter;stroke-miterlimit:4;stroke-opacity:1;stroke-dasharray:none;stroke-dashoffset:0;marker:none;visibility:visible;display:inline;overflow:visible;enable-background:accumulate" />
      <rect
         width="27.527298"
         height="17.580441"
         rx="3.5519094"
         ry="3.516088"
         x="6.4542465"
         y="2.0835137"
         id="rect4062"
         style="fill:url(#linearGradient3993);fill-opacity:1;stroke:none;display:inline" />
      <rect
         width="32.057007"
         height="21.6308"
         rx="4.1363883"
         ry="4.32616"
         x="0.13464338"
         y="0.066622458"
         id="rect4093"
         style="fill:#111111;fill-opacity:1;stroke:none;display:inline" />
      <rect
         width="30.24909"
         height="19.725706"
         rx="3.9031086"
         ry="3.9451411"
         x="1.02404"
         y="0.96162629"
         id="rect17458"
         style="fill:url(#linearGradient3995);fill-opacity:1;stroke:none;display:inline" />
      <rect
         width="29.285889"
         height="18.841696"
         rx="3.7788243"
         ry="3.5183392"
         x="1.4148053"
         y="1.3865503"
         id="rect4145"
         style="opacity:0.09813083;fill:none;stroke:#e2e2e2;stroke-width:0.96164936;stroke-opacity:1;display:inline" />
      <rect
         width="1.4207187"
         height="6.3594074"
         rx="1.8214506"
         ry="0"
         x="11.162791"
         y="7.5221987"
         id="rect3865"
         style="opacity:0.80841118;fill:#000000;fill-opacity:1;stroke:none" />
      <rect
         width="1.4207187"
         height="6.3594074"
         rx="1.8214506"
         ry="0"
         x="14.951375"
         y="7.5898519"
         id="rect3869"
         style="opacity:0.80841118;fill:#000000;fill-opacity:1;stroke:none" />
      <rect
         width="1.4207187"
         height="6.3594074"
         rx="1.8214506"
         ry="0"
         x="18.807611"
         y="7.5898519"
         id="rect3871"
         style="opacity:0.80841118;fill:#000000;fill-opacity:1;stroke:none" />
      <rect
         width="0.51678199"
         height="6.3594074"
         rx="0.66254699"
         ry="0"
         x="-13.100291"
         y="7.5221987"
         transform="scale(-1,1)"
         id="rect3877"
         style="opacity:0.80841118;fill:#6d6d6d;fill-opacity:1;stroke:none" />
      <rect
         width="0.51678199"
         height="6.3594074"
         rx="0.66254699"
         ry="0"
         x="-16.787792"
         y="7.5221987"
         transform="scale(-1,1)"
         id="rect3879"
         style="opacity:0.80841118;fill:#6d6d6d;fill-opacity:1;stroke:none" />
      <rect
         width="0.51678199"
         height="6.3594074"
         rx="0.66254699"
         ry="0"
         x="-20.725292"
         y="7.5221987"
         transform="scale(-1,1)"
         id="rect3881"
         style="opacity:0.80841118;fill:#6d6d6d;fill-opacity:1;stroke:none" />
    </g>
    <g
       id="text3873"
       style="font-size:10px;font-style:normal;font-variant:normal;font-weight:500;font-stretch:normal;line-height:125%;letter-spacing:0px;word-spacing:0px;fill:#ffffff;fill-opacity:1;stroke:none;font-family:Ubuntu;-inkscape-font-specification:Ubuntu Medium">
      <path
         d="m 9.1444706,10.84582 c -1.9e-6,0.380003 0.046665,0.726669 0.14,1.04 0.093331,0.306669 0.2266644,0.570002 0.4,0.79 0.1799974,0.213335 0.3966634,0.380001 0.6500004,0.5 0.25333,0.120001 0.539996,0.180001 0.86,0.18 0.313329,1e-6 0.596662,-0.06 0.85,-0.18 0.253328,-0.119999 0.466661,-0.286665 0.64,-0.5 0.179994,-0.219998 0.316661,-0.483331 0.41,-0.79 0.09333,-0.313331 0.139994,-0.659997 0.14,-1.04 -6e-6,-0.379996 -0.04667,-0.723329 -0.14,-1.0300003 -0.09334,-0.3133285 -0.230006,-0.5766615 -0.41,-0.79 -0.173339,-0.2199944 -0.386672,-0.3899943 -0.64,-0.51 -0.253338,-0.119994 -0.536671,-0.179994 -0.85,-0.18 -0.320004,6e-6 -0.60667,0.060006 -0.86,0.18 -0.253337,0.1200057 -0.470003,0.2900056 -0.6500004,0.51 -0.1733356,0.2200051 -0.3066688,0.4833382 -0.4,0.79 -0.093335,0.3066713 -0.1400019,0.6500043 -0.14,1.0300003 m 5.4100004,0 c -8e-6,0.593336 -0.09001,1.116669 -0.27,1.57 -0.173341,0.453335 -0.41334,0.833334 -0.72,1.14 -0.300006,0.3 -0.653339,0.526667 -1.06,0.68 -0.406672,0.153333 -0.840005,0.23 -1.3,0.23 -0.460004,0 -0.89667,-0.07667 -1.3100004,-0.23 -0.4066689,-0.153333 -0.7633352,-0.38 -1.07,-0.68 -0.3000013,-0.306666 -0.540001,-0.686665 -0.72,-1.14 -0.1800007,-0.453331 -0.2700006,-0.976664 -0.27,-1.57 -6e-7,-0.59333 0.089999,-1.113329 0.27,-1.5600003 0.179999,-0.4533278 0.423332,-0.8333274 0.73,-1.14 0.3133314,-0.3066601 0.6733311,-0.5366599 1.08,-0.69 0.4066634,-0.1533263 0.8366634,-0.2299929 1.2900004,-0.23 0.453329,7.1e-6 0.883328,0.076674 1.29,0.23 0.406661,0.1533401 0.759994,0.3833399 1.06,0.69 0.30666,0.3066726 0.549993,0.6866722 0.73,1.14 0.179992,0.4466713 0.269992,0.9666703 0.27,1.5600003"
         id="path3998" />
      <path
         d="m 20.596971,14.31582 c -0.226672,-0.38 -0.480005,-0.786666 -0.76,-1.22 -0.280005,-0.439999 -0.570005,-0.879998 -0.87,-1.32 -0.300004,-0.446664 -0.60667,-0.876664 -0.92,-1.29 -0.30667,-0.419996 -0.600003,-0.7966623 -0.88,-1.1300003 l 0,4.9600003 -1.24,0 0,-6.9300003 1.03,0 c 0.266664,0.2800067 0.55333,0.6133397 0.86,1 0.306663,0.3800056 0.61333,0.7766719 0.92,1.19 0.313329,0.4133377 0.613329,0.8300043 0.9,1.2500003 0.293328,0.413336 0.553328,0.800002 0.78,1.16 l 0,-4.6000003 1.25,0 0,6.9300003 -1.07,0"
         id="path4000" />
    </g>
  </g>
</svg>
