<?xml version="1.0" encoding="UTF-8" standalone="no"?>
<!-- Created with Inkscape (http://www.inkscape.org/) -->

<svg
   xmlns:dc="http://purl.org/dc/elements/1.1/"
   xmlns:cc="http://creativecommons.org/ns#"
   xmlns:rdf="http://www.w3.org/1999/02/22-rdf-syntax-ns#"
   xmlns:svg="http://www.w3.org/2000/svg"
   xmlns="http://www.w3.org/2000/svg"
   xmlns:sodipodi="http://sodipodi.sourceforge.net/DTD/sodipodi-0.dtd"
   xmlns:inkscape="http://www.inkscape.org/namespaces/inkscape"
   id="svg17653"
   height="13"
   width="13"
   version="1.1"
   inkscape:version="0.48.2 r9819"
   sodipodi:docname="resize-grip.svg">
  <defs
     id="defs13" />
  <sodipodi:namedview
     pagecolor="#ffffff"
     bordercolor="#666666"
     borderopacity="1"
     objecttolerance="10"
     gridtolerance="10"
     guidetolerance="10"
     inkscape:pageopacity="0"
     inkscape:pageshadow="2"
     inkscape:window-width="643"
     inkscape:window-height="480"
     id="namedview11"
     showgrid="false"
     inkscape:zoom="18.153846"
     inkscape:cx="6.5"
     inkscape:cy="6.5"
     inkscape:window-x="0"
     inkscape:window-y="24"
     inkscape:window-maximized="0"
     inkscape:current-layer="svg17653" />
  <metadata
     id="metadata17658">
    <rdf:RDF>
      <cc:Work
         rdf:about="">
        <dc:format>image/svg+xml</dc:format>
        <dc:type
           rdf:resource="http://purl.org/dc/dcmitype/StillImage" />
        <dc:title />
      </cc:Work>
    </rdf:RDF>
  </metadata>
  <g
     id="g2996">
    <path
       id="path5515"
       style="fill:#b9beb3;enable-background:new"
       d="m 8.7750958,10.752755 a 1.2499932,1.2499932 0 0 1 -2.4999864,0 1.2499932,1.2499932 0 1 1 2.4999864,0 z"
       inkscape:connector-curvature="0" />
    <path
       id="path5517"
       style="fill:#b9beb3;enable-background:new"
       d="m 12.045096,7.4727555 a 1.2499932,1.2499932 0 0 1 -2.4999866,0 1.2499932,1.2499932 0 1 1 2.4999866,0 z"
       inkscape:connector-curvature="0" />
    <path
       id="path5519"
       style="fill:#b9beb3;enable-background:new"
       d="m 12.045096,4.2027555 a 1.2499932,1.2499932 0 0 1 -2.4999866,0 1.2499932,1.2499932 0 1 1 2.4999866,0 z"
       inkscape:connector-curvature="0" />
    <path
       id="path5521"
       style="fill:#b9beb3;enable-background:new"
       d="m 5.4950958,10.752755 a 1.2499932,1.2499932 0 0 1 -2.4999864,0 1.2499932,1.2499932 0 1 1 2.4999864,0 z"
       inkscape:connector-curvature="0" />
    <path
       id="path5523"
       style="fill:#b9beb3;enable-background:new"
       d="m 8.7750958,7.4727555 a 1.2499932,1.2499932 0 0 1 -2.4999864,0 1.2499932,1.2499932 0 1 1 2.4999864,0 z"
       inkscape:connector-curvature="0" />
  </g>
</svg>
