<?xml version="1.0" encoding="UTF-8" standalone="no"?>
<!-- Created with Inkscape (http://www.inkscape.org/) -->
<svg id="svg814" xmlns:rdf="http://www.w3.org/1999/02/22-rdf-syntax-ns#" xmlns="http://www.w3.org/2000/svg" height="16" width="16" version="1.1" xmlns:cc="http://creativecommons.org/ns#" xmlns:xlink="http://www.w3.org/1999/xlink" xmlns:dc="http://purl.org/dc/elements/1.1/">
 <defs id="defs816">
  <linearGradient id="linearGradient8358" y2="258.64" gradientUnits="userSpaceOnUse" x2="662.53" y1="243.74" x1="662.53">
   <stop id="stop11579-5-6-7-4" style="stop-color:#d3d7cf" offset="0"/>
   <stop id="stop11581-8-0-0-9" style="stop-color:#fff" offset="1"/>
  </linearGradient>
  <linearGradient id="linearGradient8360" y2="248.05" gradientUnits="userSpaceOnUse" x2="664.27" y1="261.45" x1="664.27">
   <stop id="stop12417-2-8-0" style="stop-color:#d3d7cf" offset="0"/>
   <stop id="stop12419-5-0-9" style="stop-color:#8f9985" offset="1"/>
  </linearGradient>
  <radialGradient id="radialGradient8368" gradientUnits="userSpaceOnUse" cy="251.41" cx="660.87" gradientTransform="matrix(1.4686 0 0 2.2821 -309.65 -324.36)" r="5.0291">
   <stop id="stop12407-9" offset="0"/>
   <stop id="stop12409-7" style="stop-opacity:0" offset="1"/>
  </radialGradient>
  <linearGradient id="linearGradient7352-4" y2="9.8281" gradientUnits="userSpaceOnUse" x2="5.6562" y1="6.3906" x1="5.6562">
   <stop id="stop7348-1" style="stop-color:#1969ba" offset="0"/>
   <stop id="stop7350-0" style="stop-color:#145393" offset="1"/>
  </linearGradient>
 </defs>
 <metadata id="metadata819">
  <rdf:RDF>
   <cc:Work rdf:about="">
    <dc:format>image/svg+xml</dc:format>
    <dc:type rdf:resource="http://purl.org/dc/dcmitype/StillImage"/>
    <dc:title/>
   </cc:Work>
  </rdf:RDF>
 </metadata>
 <g id="layer1" transform="translate(0 -1036.4)">
  <path id="path6307" style="stroke-linejoin:round;stroke-width:.88216;color:#000000;stroke-dashoffset:100;stroke:url(#linearGradient8360);stroke-linecap:square;enable-background:new;fill:url(#linearGradient8358)" d="m665.48 255.07c0 4.0282-2.0182 7.2938-4.5078 7.2938s-4.5078-3.2655-4.5078-7.2938c0-4.0282 2.0182-7.2938 4.5078-7.2938s4.5078 3.2655 4.5078 7.2938z" transform="matrix(1.4419 0 0 .89117 -945.08 817.05)"/>
  <path id="path6313" style="opacity:.12955;stroke-linejoin:round;stroke-dashoffset:100;stroke:url(#radialGradient8368);stroke-linecap:square;stroke-width:1.0425;fill:none" d="m665.48 255.07c0 4.0282-2.0182 7.2938-4.5078 7.2938s-4.5078-3.2655-4.5078-7.2938c0-4.0282 2.0182-7.2938 4.5078-7.2938s4.5078 3.2655 4.5078 7.2938z" transform="matrix(1.2201 0 0 .75407 -798.45 852.02)"/>
  <g id="g3013" transform="translate(2)">
   <rect id="rect5494" style="fill-opacity:.98824;color:#000000;stroke:url(#linearGradient7352-4);fill:#4588ca" transform="translate(0 1036.4)" rx="1.5156" ry="1.5156" height="3.0312" width="8.9375" y="6.5" x="1.5312"/>
   <path id="path5496" d="m2.5312 7.5625h6.9375" style="opacity:.50431;stroke:#fff;stroke-linecap:round;stroke-width:1px;fill:none" transform="translate(0 1036.4)"/>
  </g>
 </g>
</svg>
