<?xml version="1.0" encoding="UTF-8" standalone="no"?>
<!-- Created with Inkscape (http://www.inkscape.org/) -->

<svg
   xmlns:dc="http://purl.org/dc/elements/1.1/"
   xmlns:cc="http://creativecommons.org/ns#"
   xmlns:rdf="http://www.w3.org/1999/02/22-rdf-syntax-ns#"
   xmlns:svg="http://www.w3.org/2000/svg"
   xmlns="http://www.w3.org/2000/svg"
   xmlns:xlink="http://www.w3.org/1999/xlink"
   xmlns:sodipodi="http://sodipodi.sourceforge.net/DTD/sodipodi-0.dtd"
   xmlns:inkscape="http://www.inkscape.org/namespaces/inkscape"
   width="16px"
   height="16px"
   id="svg4446"
   version="1.1"
   inkscape:version="0.48.2 r9819"
   sodipodi:docname="slider.svg">
  <defs
     id="defs4448">
    <linearGradient
       id="linearGradient4095-2-3">
      <stop
         id="stop4097-5-6"
         style="stop-color:#131313;stop-opacity:1"
         offset="0" />
      <stop
         id="stop4099-4-1"
         style="stop-color:#131313;stop-opacity:0"
         offset="1" />
    </linearGradient>
    <linearGradient
       id="linearGradient4054-7-0">
      <stop
         id="stop4056-4-0"
         style="stop-color:#cdcdcd;stop-opacity:1"
         offset="0" />
      <stop
         id="stop4058-4-7"
         style="stop-color:#f9f9f9;stop-opacity:1"
         offset="1" />
    </linearGradient>
    <linearGradient
       inkscape:collect="always"
       xlink:href="#linearGradient4054-7-0"
       id="linearGradient4596"
       gradientUnits="userSpaceOnUse"
       gradientTransform="matrix(0.47911277,0,0,0.53011185,15.158706,2.2735391)"
       x1="-47.059258"
       y1="20.14957"
       x2="-46.978706"
       y2="1.0181593" />
    <linearGradient
       inkscape:collect="always"
       xlink:href="#linearGradient4054-7-0"
       id="linearGradient5148"
       gradientUnits="userSpaceOnUse"
       gradientTransform="matrix(0.47911277,0,0,0.53011185,15.158706,2.2735391)"
       x1="-47.059258"
       y1="20.14957"
       x2="-46.978706"
       y2="1.0181593" />
    <linearGradient
       inkscape:collect="always"
       xlink:href="#linearGradient4054-7-0"
       id="linearGradient3004"
       gradientUnits="userSpaceOnUse"
       gradientTransform="matrix(0.46164879,0,0,0.70676378,14.29253,0.29731646)"
       x1="-47.059258"
       y1="20.14957"
       x2="-46.978706"
       y2="1.0181593" />
    <linearGradient
       inkscape:collect="always"
       xlink:href="#linearGradient4054-7-0"
       id="linearGradient3784"
       gradientUnits="userSpaceOnUse"
       gradientTransform="matrix(0.46164879,0,0,0.70676378,14.29253,0.29731646)"
       x1="-47.059258"
       y1="20.14957"
       x2="-46.978706"
       y2="1.0181593" />
    <linearGradient
       inkscape:collect="always"
       xlink:href="#linearGradient4054-7-0"
       id="linearGradient3792"
       gradientUnits="userSpaceOnUse"
       gradientTransform="matrix(0.46164879,0,0,0.70676378,14.29253,0.29731646)"
       x1="-47.059258"
       y1="20.14957"
       x2="-46.978706"
       y2="1.0181593" />
  </defs>
  <sodipodi:namedview
     id="base"
     pagecolor="#ffffff"
     bordercolor="#666666"
     borderopacity="1.0"
     inkscape:pageopacity="0.0"
     inkscape:pageshadow="2"
     inkscape:zoom="22.197802"
     inkscape:cx="8"
     inkscape:cy="8"
     inkscape:current-layer="layer1"
     showgrid="true"
     inkscape:grid-bbox="true"
     inkscape:document-units="px"
     inkscape:window-width="787"
     inkscape:window-height="695"
     inkscape:window-x="0"
     inkscape:window-y="29"
     inkscape:window-maximized="0" />
  <metadata
     id="metadata4451">
    <rdf:RDF>
      <cc:Work
         rdf:about="">
        <dc:format>image/svg+xml</dc:format>
        <dc:type
           rdf:resource="http://purl.org/dc/dcmitype/StillImage" />
        <dc:title></dc:title>
      </cc:Work>
    </rdf:RDF>
  </metadata>
  <g
     id="layer1"
     inkscape:label="Layer 1"
     inkscape:groupmode="layer">
    <g
       id="g3795">
      <rect
         transform="scale(-1,1)"
         width="15.481102"
         height="15.50045"
         rx="2.6282551"
         ry="3.10009"
         x="-15.749402"
         y="0.2734884"
         id="rect4093-8"
         style="fill:#131313;fill-opacity:0.43902438;stroke:none;display:inline" />
      <rect
         transform="scale(-1,1)"
         width="14.311114"
         height="14.135277"
         rx="2.657486"
         ry="2.8270547"
         x="-15.193769"
         y="0.91483927"
         id="rect17458-4"
         style="fill:url(#linearGradient3792);fill-opacity:1;stroke:none;display:inline" />
      <rect
         transform="scale(-1,1)"
         width="13.536523"
         height="13.540421"
         rx="2.1971431"
         ry="2.7080843"
         x="-14.78727"
         y="1.2357019"
         id="rect4145-3"
         style="fill:none;stroke:#ffffff;stroke-width:0.55423915;stroke-opacity:1;display:inline" />
      <path
         inkscape:connector-curvature="0"
         style="font-size:10.1541729px;font-style:normal;font-variant:normal;font-weight:normal;font-stretch:normal;line-height:125%;letter-spacing:0px;word-spacing:0px;fill:#ffffff;fill-opacity:1;stroke:none;font-family:Aller;-inkscape-font-specification:Aller"
         id="path4258-4"
         d="m 8.8322423,2.853109 c -0.021449,0.4104209 -0.032173,0.7475418 -0.032179,1.0113644 3.7e-6,0.2052145 0.00216,0.4030908 0.00644,0.5936268 0.00431,0.1758995 0.01073,0.3371317 0.019307,0.4836959 L 10.936775,7.7340405 8.8258026,10.416354 c -0.00858,0.161237 -0.015015,0.329797 -0.019307,0.505683 -0.00431,0.175892 -0.00644,0.351782 -0.00644,0.527668 3.8e-6,0.219865 0.00216,0.425068 0.00644,0.615613 0.00431,0.190549 0.012872,0.373767 0.025746,0.549654 L 11.509572,8.899308 c 0.02575,-0.3664296 0.03862,-0.769509 0.03862,-1.2092397 10e-7,-0.3957433 -0.01287,-0.7695079 -0.03862,-1.1212951 L 8.8322423,2.853109" />
      <path
         inkscape:connector-curvature="0"
         id="path4204-2"
         d="m 9.2352504,2.7429034 c -0.021449,0.4104208 -0.032173,0.7475418 -0.032179,1.0113643 3.8e-6,0.2052145 0.00216,0.4030909 0.00644,0.5936269 0.00431,0.1758994 0.01073,0.3371317 0.019307,0.4836958 L 11.339783,7.6238349 9.2288107,10.306149 c -0.00858,0.161236 -0.015015,0.329797 -0.019307,0.505681 -0.00431,0.175894 -0.00644,0.351784 -0.00644,0.527668 3.8e-6,0.219867 0.00216,0.42507 0.00644,0.615614 0.00431,0.19055 0.012872,0.373768 0.025746,0.549654 L 11.91258,8.7891023 C 11.93833,8.4226728 11.9512,8.0195934 11.9512,7.5798627 11.951201,7.1841194 11.93833,6.8103548 11.91258,6.4585676 L 9.2352504,2.7429034"
         style="font-size:10.15417290000000072px;font-style:normal;font-variant:normal;font-weight:normal;font-stretch:normal;line-height:125%;letter-spacing:0px;word-spacing:0px;opacity:0.79591837;fill:#808080;fill-opacity:1;stroke:none;font-family:Aller;-inkscape-font-specification:Aller" />
      <path
         inkscape:connector-curvature="0"
         style="font-size:10.1541729px;font-style:normal;font-variant:normal;font-weight:normal;font-stretch:normal;line-height:125%;letter-spacing:0px;word-spacing:0px;fill:#ffffff;fill-opacity:1;stroke:none;font-family:Aller;-inkscape-font-specification:Aller"
         id="path4258-4-5"
         d="m 7.3194525,2.937942 c 0.021449,0.4104208 0.032173,0.7475417 0.032179,1.0113643 -3.7e-6,0.2052145 -0.00216,0.4030909 -0.00644,0.5936269 -0.00431,0.1758994 -0.01073,0.3371317 -0.019307,0.4836958 L 5.2149199,7.8188735 7.3258921,10.501187 c 0.00858,0.161237 0.015015,0.329798 0.019307,0.505682 0.00431,0.175893 0.00644,0.351782 0.00644,0.527668 -3.8e-6,0.219867 -0.00216,0.42507 -0.00644,0.615614 -0.00431,0.19055 -0.012872,0.373768 -0.025746,0.549654 L 4.642122,8.9841409 C 4.6163765,8.6177114 4.6035036,8.214632 4.6035099,7.7749013 c -6e-7,-0.3957433 0.012873,-0.7695079 0.038613,-1.1212951 l 2.67733,-3.7156642" />
      <path
         inkscape:connector-curvature="0"
         id="path4204-2-9"
         d="m 6.9164463,2.8277354 c 0.021449,0.4104209 0.032173,0.7475418 0.032179,1.0113644 -3.8e-6,0.2052145 -0.00216,0.4030908 -0.00644,0.5936268 -0.00431,0.1758995 -0.01073,0.3371317 -0.019307,0.4836959 L 4.8119138,7.7086669 6.922886,10.390981 c 0.00858,0.161236 0.015015,0.329797 0.019307,0.505682 0.00431,0.175892 0.00644,0.351782 0.00644,0.527668 -3.7e-6,0.219866 -0.00216,0.42507 -0.00644,0.615613 -0.00431,0.19055 -0.012872,0.373768 -0.025746,0.549654 L 4.2391159,8.8739344 c -0.025746,-0.3664296 -0.038619,-0.769509 -0.038612,-1.2092397 -6e-7,-0.3957433 0.012873,-0.7695079 0.038613,-1.1212951 l 2.67733,-3.7156642"
         style="font-size:10.15417290000000072px;font-style:normal;font-variant:normal;font-weight:normal;font-stretch:normal;line-height:125%;letter-spacing:0px;word-spacing:0px;opacity:0.80701754999999986;fill:#808080;fill-opacity:1;stroke:none;font-family:Aller;-inkscape-font-specification:Aller" />
    </g>
  </g>
</svg>
