/* XPM */
static char * close_active_xpm[] = {
"20 24 170 2",
"  	c None",
". 	c #747474",
"+ 	c #6C6C6C",
"@ 	c #5A4545",
"# 	c #492928",
"$ 	c #3C110F",
"% 	c #3A0F0D",
"& 	c #482525",
"* 	c #574140",
"= 	c #6C6261",
"- 	c #491C18",
"; 	c #4C100C",
"> 	c #70120C",
", 	c #9E3D38",
"' 	c #A9514D",
") 	c #7A201B",
"! 	c #4E110C",
"~ 	c #481713",
"{ 	c #685A59",
"] 	c #706362",
"^ 	c #4D110D",
"/ 	c #74140E",
"( 	c #BB1A11",
"_ 	c #CF433B",
": 	c #E3908B",
"< 	c #ECB3B0",
"[ 	c #E0837E",
"} 	c #C01A12",
"| 	c #7D150E",
"1 	c #4C100B",
"2 	c #6A5957",
"3 	c #5E2520",
"4 	c #7C1810",
"5 	c #CA2218",
"6 	c #D6544C",
"7 	c #ECB1AD",
"8 	c #FEFBFB",
"9 	c #E8A19D",
"0 	c #891911",
"a 	c #5D1D18",
"b 	c #6F504D",
"c 	c #6D1B14",
"d 	c #C5271D",
"e 	c #CF281F",
"f 	c #CF291F",
"g 	c #D1322A",
"h 	c #E27C77",
"i 	c #E99D99",
"j 	c #D64840",
"k 	c #C9281E",
"l 	c #741B14",
"m 	c #6D4945",
"n 	c #7A4844",
"o 	c #922117",
"p 	c #D42F24",
"q 	c #D63529",
"r 	c #D93C31",
"s 	c #DA4036",
"t 	c #D93F34",
"u 	c #D5362B",
"v 	c #9C2017",
"w 	c #7A3C36",
"x 	c #81342D",
"y 	c #AF291E",
"z 	c #D9372A",
"A 	c #DA372B",
"B 	c #DC3E32",
"C 	c #E04B3F",
"D 	c #E0544B",
"E 	c #E1584E",
"F 	c #E1554B",
"G 	c #DF4D41",
"H 	c #DC4033",
"I 	c #B82C20",
"J 	c #7D2820",
"K 	c #8C3A32",
"L 	c #B62D21",
"M 	c #DE3E30",
"N 	c #DF3F31",
"O 	c #E45044",
"P 	c #E55F54",
"Q 	c #E86A5F",
"R 	c #E86E64",
"S 	c #E76B61",
"T 	c #E56155",
"U 	c #E25247",
"V 	c #DE4133",
"W 	c #BE3024",
"X 	c #8A2E26",
"Y 	c #995F57",
"Z 	c #AC2D20",
"` 	c #E44537",
" .	c #E54E41",
"..	c #EA6054",
"+.	c #EC7167",
"@.	c #ED7F75",
"#.	c #EE837B",
"$.	c #ED8076",
"%.	c #EC7369",
"&.	c #E96357",
"*.	c #E54F43",
"=.	c #B52F21",
"-.	c #985147",
";.	c #9B756E",
">.	c #9B301F",
",.	c #E14839",
"'.	c #EC5A4C",
").	c #EF6E63",
"!.	c #F08176",
"~.	c #F38F87",
"{.	c #F3978F",
"].	c #F39189",
"^.	c #F18379",
"/.	c #EE7165",
"(.	c #E85B4D",
"_.	c #A02F1E",
":.	c #9B6E65",
"<.	c #969392",
"[.	c #9E4E3E",
"}.	c #B53824",
"|.	c #EF6456",
"1.	c #F1786C",
"2.	c #F48C82",
"3.	c #F69F96",
"4.	c #F7AAA3",
"5.	c #F5A198",
"6.	c #F38E84",
"7.	c #F17B6F",
"8.	c #C75241",
"9.	c #9D4533",
"0.	c #9A9391",
"a.	c #B19E9A",
"b.	c #A2402A",
"c.	c #C4523E",
"d.	c #F17D6F",
"e.	c #F79489",
"f.	c #F9A89F",
"g.	c #FABCB5",
"h.	c #F8AAA1",
"i.	c #F5958A",
"j.	c #D26C5A",
"k.	c #A6442E",
"l.	c #B0948D",
"m.	c #878787",
"n.	c #B8A39D",
"o.	c #AD5B46",
"p.	c #BA543D",
"q.	c #D77462",
"r.	c #E79588",
"s.	c #EBA296",
"t.	c #DC8576",
"u.	c #C2624C",
"v.	c #AD5540",
"w.	c #B69B95",
"x.	c #8B8B8B",
"y.	c #B4B1B0",
"z.	c #B99083",
"A.	c #BA7864",
"B.	c #B65A40",
"C.	c #B5583D",
"D.	c #B87461",
"E.	c #B78A7D",
"F.	c #B5B0AE",
"G.	c #898989",
"H.	c #969696",
"I.	c #A4A5A5",
"J.	c #B3B3B3",
"K.	c #B3B4B3",
"L.	c #A5A5A6",
"M.	c #979796",
". . . . . . . . . . . . . . . . . . . . ",
"+ + + + + + + + + + + + + + + + + + + + ",
"+ + + + + + + + + + + + + + + + + + + + ",
"+ + + + + + + + + + + + + + + + + + + + ",
"+ + + + + + + + + + + + + + + + + + + + ",
"+ + + + + + + @ # $ % & * + + + + + + + ",
"+ + + + + = - ; > , ' ) ! ~ { + + + + + ",
"+ + + + ] ^ / ( _ : < [ } | 1 2 + + + + ",
"+ + + + 3 4 5 5 6 7 8 9 5 5 0 a + + + + ",
"+ + + b c d e f g h i j f e k l m + + + ",
"+ + + n o p p p q r s t u p p v w + + + ",
"+ + + x y z A B C D E F G H z I J + + + ",
"+ + + K L M N O P Q R S T U V W X + + + ",
"+ + + Y Z `  ...+.@.#.$.%.&.*.=.-.+ + + ",
"+ + + ;.>.,.'.).!.~.{.].^./.(._.:.+ + + ",
"+ + + <.[.}.|.1.2.3.4.5.6.7.8.9.0.+ + + ",
"+ + + + a.b.c.d.e.f.g.h.i.j.k.l.+ + + + ",
"+ + + + m.n.o.p.q.r.s.t.u.v.w.x.+ + + + ",
"+ + + + + m.y.z.A.B.C.D.E.F.G.+ + + + + ",
"+ + + + + + + H.I.J.K.L.M.+ + + + + + + ",
"+ + + + + + + + + + + + + + + + + + + + ",
"+ + + + + + + + + + + + + + + + + + + + ",
"+ + + + + + + + + + + + + + + + + + + + ",
"+ + + + + + + + + + + + + + + + + + + + "};
