/* XPM */
static char * close_prelight_xpm[] = {
"20 24 167 2",
"  	c None",
". 	c #747474",
"+ 	c #6C6C6C",
"@ 	c #5A4545",
"# 	c #492928",
"$ 	c #3C110F",
"% 	c #3A0F0D",
"& 	c #482525",
"* 	c #574140",
"= 	c #6C6261",
"- 	c #491C18",
"; 	c #4C100C",
"> 	c #70120C",
", 	c #9E3D38",
"' 	c #A9514D",
") 	c #7A201B",
"! 	c #4E110C",
"~ 	c #481713",
"{ 	c #685A59",
"] 	c #706362",
"^ 	c #4D110D",
"/ 	c #74140E",
"( 	c #BB1A11",
"_ 	c #CF433B",
": 	c #E3908B",
"< 	c #ECB3B0",
"[ 	c #E0837E",
"} 	c #C01A12",
"| 	c #7D150E",
"1 	c #4C100B",
"2 	c #6A5957",
"3 	c #5E2520",
"4 	c #7C1810",
"5 	c #CA2218",
"6 	c #A20D0A",
"7 	c #D6544C",
"8 	c #EDB1AD",
"9 	c #FEFBFB",
"0 	c #E8A19D",
"a 	c #891911",
"b 	c #5D1D18",
"c 	c #6F504D",
"d 	c #6D1B14",
"e 	c #C5271D",
"f 	c #B41B16",
"g 	c #E27C76",
"h 	c #E99D99",
"i 	c #C9281E",
"j 	c #741B14",
"k 	c #6D4945",
"l 	c #7A4844",
"m 	c #922117",
"n 	c #D42F23",
"o 	c #B4120E",
"p 	c #B1120D",
"q 	c #BD1813",
"r 	c #BE1813",
"s 	c #B2120D",
"t 	c #9C2017",
"u 	c #7A3C36",
"v 	c #81342D",
"w 	c #AF281E",
"x 	c #DA372A",
"y 	c #DD3E32",
"z 	c #BF1B15",
"A 	c #B91711",
"B 	c #BA1711",
"C 	c #DF4D41",
"D 	c #DC4033",
"E 	c #B82B20",
"F 	c #7D2820",
"G 	c #8C3A32",
"H 	c #B72D21",
"I 	c #DE3E30",
"J 	c #DF3F31",
"K 	c #E45144",
"L 	c #CB2D25",
"M 	c #BE231A",
"N 	c #BF231B",
"O 	c #CC2E26",
"P 	c #E56156",
"Q 	c #E25247",
"R 	c #DE4133",
"S 	c #BE3023",
"T 	c #8A2E26",
"U 	c #995F57",
"V 	c #AC2D1F",
"W 	c #E44537",
"X 	c #E64D41",
"Y 	c #D23A32",
"Z 	c #C63128",
"` 	c #CC3E34",
" .	c #CD3F35",
"..	c #C63228",
"+.	c #D23B33",
"@.	c #E96357",
"#.	c #E54F43",
"$.	c #B52F21",
"%.	c #985147",
"&.	c #9B756E",
"*.	c #9B301F",
"=.	c #E14839",
"-.	c #D2483E",
";.	c #C94439",
">.	c #CF544A",
",.	c #F39087",
"'.	c #F49790",
").	c #CF554B",
"!.	c #C9453A",
"~.	c #D3493F",
"{.	c #E85B4D",
"].	c #A02F1E",
"^.	c #9B6E65",
"/.	c #969392",
"(.	c #9E4E3D",
"_.	c #B53824",
":.	c #EF6456",
"<.	c #D55D53",
"[.	c #F48C82",
"}.	c #F6A097",
"|.	c #F7ABA3",
"1.	c #F6A198",
"2.	c #D55F55",
"3.	c #F17B6F",
"4.	c #C75141",
"5.	c #9D4433",
"6.	c #9A9391",
"7.	c #B29D98",
"8.	c #A33F29",
"9.	c #C4523E",
"0.	c #F17D6F",
"a.	c #F79489",
"b.	c #F9A89F",
"c.	c #FABCB5",
"d.	c #F8AAA1",
"e.	c #F5958A",
"f.	c #D26C5A",
"g.	c #A6442E",
"h.	c #B1928C",
"i.	c #878687",
"j.	c #B8A29D",
"k.	c #AF5944",
"l.	c #BB533D",
"m.	c #D77461",
"n.	c #E79588",
"o.	c #EBA296",
"p.	c #DC8576",
"q.	c #C2614B",
"r.	c #AF533F",
"s.	c #B79B94",
"t.	c #8B8A8B",
"u.	c #878787",
"v.	c #B5B0AF",
"w.	c #BB8D80",
"x.	c #BF735F",
"y.	c #BA573D",
"z.	c #B8553B",
"A.	c #BD705C",
"B.	c #BA887B",
"C.	c #B6AEAC",
"D.	c #898989",
"E.	c #969696",
"F.	c #A4A5A5",
"G.	c #B3B3B3",
"H.	c #B3B4B3",
"I.	c #A5A5A6",
"J.	c #979796",
". . . . . . . . . . . . . . . . . . . . ",
"+ + + + + + + + + + + + + + + + + + + + ",
"+ + + + + + + + + + + + + + + + + + + + ",
"+ + + + + + + + + + + + + + + + + + + + ",
"+ + + + + + + + + + + + + + + + + + + + ",
"+ + + + + + + @ # $ % & * + + + + + + + ",
"+ + + + + = - ; > , ' ) ! ~ { + + + + + ",
"+ + + + ] ^ / ( _ : < [ } | 1 2 + + + + ",
"+ + + + 3 4 5 6 7 8 9 0 6 5 a b + + + + ",
"+ + + c d e 6 6 f g h f 6 6 i j k + + + ",
"+ + + l m n n o p q r s o n n t u + + + ",
"+ + + v w x x y z A B z C D x E F + + + ",
"+ + + G H I J K L M N O P Q R S T + + + ",
"+ + + U V W X Y Z `  ...+.@.#.$.%.+ + + ",
"+ + + &.*.=.-.;.>.,.'.).!.~.{.].^.+ + + ",
"+ + + /.(._.:.<.[.}.|.1.2.3.4.5.6.+ + + ",
"+ + + + 7.8.9.0.a.b.c.d.e.f.g.h.+ + + + ",
"+ + + + i.j.k.l.m.n.o.p.q.r.s.t.+ + + + ",
"+ + + + + u.v.w.x.y.z.A.B.C.D.+ + + + + ",
"+ + + + + + + E.F.G.H.I.J.+ + + + + + + ",
"+ + + + + + + + + + + + + + + + + + + + ",
"+ + + + + + + + + + + + + + + + + + + + ",
"+ + + + + + + + + + + + + + + + + + + + ",
"+ + + + + + + + + + + + + + + + + + + + "};
