/* XPM */
static char * close_pressed_xpm[] = {
"20 24 162 2",
"  	c None",
". 	c #747474",
"+ 	c #6C6C6C",
"@ 	c #574545",
"# 	c #452928",
"$ 	c #37110F",
"% 	c #340F0D",
"& 	c #432525",
"* 	c #544140",
"= 	c #6B6261",
"- 	c #441C18",
"; 	c #430F0B",
"> 	c #63100B",
", 	c #8B3633",
"' 	c #964844",
") 	c #6C1D18",
"! 	c #46100B",
"~ 	c #421713",
"{ 	c #665A59",
"] 	c #6E6362",
"^ 	c #45110D",
"/ 	c #66120D",
"( 	c #A5170F",
"_ 	c #B73B34",
": 	c #C87F7B",
"< 	c #D09E9B",
"[ 	c #C57470",
"} 	c #AA1710",
"| 	c #6F130D",
"1 	c #440F0B",
"2 	c #685957",
"3 	c #56241F",
"4 	c #6E160E",
"5 	c #B31E15",
"6 	c #780504",
"7 	c #BD4A43",
"8 	c #D19C99",
"9 	c #E0DDDD",
"0 	c #CC8E8A",
"a 	c #7A160F",
"b 	c #541B17",
"c 	c #6B4F4D",
"d 	c #611812",
"e 	c #AE231A",
"f 	c #8C0706",
"g 	c #C76E69",
"h 	c #CD8A87",
"i 	c #8D0706",
"j 	c #B2241B",
"k 	c #661812",
"l 	c #684844",
"m 	c #714441",
"n 	c #821D15",
"o 	c #BB2A20",
"p 	c #8C0605",
"q 	c #860605",
"r 	c #950605",
"s 	c #960605",
"t 	c #8A1C15",
"u 	c #6F3933",
"v 	c #74302A",
"w 	c #9A241B",
"x 	c #C03125",
"y 	c #C03126",
"z 	c #C2362C",
"A 	c #980706",
"B 	c #8E0706",
"C 	c #C44439",
"D 	c #C2392D",
"E 	c #A2271C",
"F 	c #70251E",
"G 	c #7E352E",
"H 	c #A1291D",
"I 	c #C4372A",
"J 	c #C4382B",
"K 	c #C8473C",
"L 	c #A60807",
"M 	c #940807",
"N 	c #950807",
"O 	c #A70807",
"P 	c #C9554C",
"Q 	c #C7483F",
"R 	c #C4392D",
"S 	c #A82A20",
"T 	c #7B2A23",
"U 	c #8B5850",
"V 	c #98281D",
"W 	c #CA3D31",
"X 	c #CB4539",
"Y 	c #AE0E08",
"Z 	c #9E0909",
"` 	c #A80A09",
" .	c #AE0F08",
"..	c #CD574D",
"+.	c #CB473B",
"@.	c #9F2B1D",
"#.	c #894A41",
"$.	c #8F6D68",
"%.	c #892B1C",
"&.	c #C74032",
"*.	c #AD1C11",
"=.	c #A11109",
"-.	c #AA2112",
";.	c #D57F77",
">.	c #D6867F",
",.	c #AA2213",
"'.	c #A11209",
").	c #AE1C12",
"!.	c #CC5045",
"~.	c #8E2A1B",
"{.	c #8E665E",
"].	c #8F8C8C",
"^.	c #8D4738",
"/.	c #A03221",
"(.	c #D3584D",
"_.	c #B02B1E",
":.	c #D77B73",
"<.	c #D88D85",
"[.	c #DA9790",
"}.	c #D88E86",
"|.	c #B02C20",
"1.	c #D56D62",
"2.	c #B04839",
"3.	c #8C3E2E",
"4.	c #928B8A",
"5.	c #A3928E",
"6.	c #903925",
"7.	c #AE4838",
"8.	c #D56F62",
"9.	c #DA8279",
"0.	c #DB948C",
"a.	c #DCA6A0",
"b.	c #DB968E",
"c.	c #D9837A",
"d.	c #BA5F4F",
"e.	c #933D29",
"f.	c #A18882",
"g.	c #797979",
"h.	c #A79691",
"i.	c #9A5240",
"j.	c #A54A36",
"k.	c #BD6657",
"l.	c #CC8478",
"m.	c #CF8F85",
"n.	c #C27568",
"o.	c #AC5743",
"p.	c #9A4C3A",
"q.	c #A58F88",
"r.	c #868686",
"s.	c #A6A4A3",
"t.	c #A78377",
"u.	c #A66D5B",
"v.	c #A2513A",
"w.	c #A14E37",
"x.	c #A56958",
"y.	c #A67E72",
"z.	c #A7A2A1",
"A.	c #858585",
"B.	c #8F8F8F",
"C.	c #9A9B9B",
"D.	c #A6A6A6",
"E.	c #9B9B9B",
". . . . . . . . . . . . . . . . . . . . ",
"+ + + + + + + + + + + + + + + + + + + + ",
"+ + + + + + + + + + + + + + + + + + + + ",
"+ + + + + + + + + + + + + + + + + + + + ",
"+ + + + + + + + + + + + + + + + + + + + ",
"+ + + + + + + @ # $ % & * + + + + + + + ",
"+ + + + + = - ; > , ' ) ! ~ { + + + + + ",
"+ + + + ] ^ / ( _ : < [ } | 1 2 + + + + ",
"+ + + + 3 4 5 6 7 8 9 0 6 5 a b + + + + ",
"+ + + c d e 6 6 f g h i 6 6 j k l + + + ",
"+ + + m n o o p q r s q p o o t u + + + ",
"+ + + v w x y z A B B A C D x E F + + + ",
"+ + + G H I J K L M N O P Q R S T + + + ",
"+ + + U V W X Y Z ` ` Z  ...+.@.#.+ + + ",
"+ + + $.%.&.*.=.-.;.>.,.'.).!.~.{.+ + + ",
"+ + + ].^./.(._.:.<.[.}.|.1.2.3.4.+ + + ",
"+ + + + 5.6.7.8.9.0.a.b.c.d.e.f.+ + + + ",
"+ + + + g.h.i.j.k.l.m.n.o.p.q.r.+ + + + ",
"+ + + + + g.s.t.u.v.w.x.y.z.A.+ + + + + ",
"+ + + + + + + B.C.D.D.E.B.+ + + + + + + ",
"+ + + + + + + + + + + + + + + + + + + + ",
"+ + + + + + + + + + + + + + + + + + + + ",
"+ + + + + + + + + + + + + + + + + + + + ",
"+ + + + + + + + + + + + + + + + + + + + "};
