/* XPM */
static char * close_inactive_xpm[] = {
"20 24 113 2",
"  	c None",
". 	c #747474",
"+ 	c #6C6C6C",
"@ 	c #4A4A4B",
"# 	c #313131",
"$ 	c #1B1B1B",
"% 	c #1A1A1A",
"& 	c #2F2F2F",
"* 	c #474747",
"= 	c #636363",
"- 	c #2A2A2A",
"; 	c #252525",
"> 	c #3F3F3F",
", 	c #737373",
"' 	c #808080",
") 	c #4B4B4B",
"! 	c #272727",
"~ 	c #262626",
"{ 	c #5E5E5E",
"] 	c #666666",
"^ 	c #464646",
"/ 	c #7E7E7E",
"( 	c #9B9B9B",
"_ 	c #C3C3C3",
": 	c #D6D6D6",
"< 	c #BBBBBB",
"[ 	c #606060",
"} 	c #3A3B3B",
"| 	c #4F4F4F",
"1 	c #909090",
"2 	c #8F8F8F",
"3 	c #AAAAAA",
"4 	c #D8D8D8",
"5 	c #FDFDFD",
"6 	c #CECECE",
"7 	c #555555",
"8 	c #373737",
"9 	c #5D5C5C",
"0 	c #404040",
"a 	c #929292",
"b 	c #A0A0A0",
"c 	c #D0D0D0",
"d 	c #969696",
"e 	c #454545",
"f 	c #565656",
"g 	c #A7A7A7",
"h 	c #ABABAB",
"i 	c #B0B0B0",
"j 	c #B2B1B1",
"k 	c #AFAFAF",
"l 	c #575756",
"m 	c #575757",
"n 	c #828282",
"o 	c #B2B2B2",
"p 	c #B7B7B6",
"q 	c #BCBCBC",
"r 	c #C0C0C0",
"s 	c #C1C1C1",
"t 	c #B5B5B5",
"u 	c #8B8B8B",
"v 	c #616161",
"w 	c #BDBDBD",
"x 	c #C5C5C5",
"y 	c #CBCBCB",
"z 	c #CECECD",
"A 	c #D0D0CF",
"B 	c #CFCFCE",
"C 	c #C4C4C4",
"D 	c #949494",
"E 	c #595959",
"F 	c #C8C8C8",
"G 	c #D3D3D3",
"H 	c #D7D7D7",
"I 	c #DBDBDB",
"J 	c #DCDCDC",
"K 	c #D8D8D7",
"L 	c #D1D1D1",
"M 	c #898989",
"N 	c #848485",
"O 	c #676767",
"P 	c #DDDDDD",
"Q 	c #E1E1E1",
"R 	c #E5E5E5",
"S 	c #E7E7E7",
"T 	c #E2E2E2",
"U 	c #707070",
"V 	c #8D8D8D",
"W 	c #E6E6E6",
"X 	c #EAEAEA",
"Y 	c #EEEEEE",
"Z 	c #F0F0F0",
"` 	c #E9E9E9",
" .	c #A1A1A1",
"..	c #959595",
"+.	c #A5A5A5",
"@.	c #6B6B6B",
"#.	c #E8E8E8",
"$.	c #F1F1F1",
"%.	c #F4F4F4",
"&.	c #F6F6F6",
"*.	c #EFEFEF",
"=.	c #B3B3B3",
"-.	c #A9A9A9",
";.	c #7D7D7D",
">.	c #8C8C8C",
",.	c #B8B8B8",
"'.	c #C2C2C2",
").	c #979797",
"!.	c #7C7C7C",
"~.	c #888888",
"{.	c #9E9E9E",
"].	c #7F7F7F",
"^.	c #979796",
". . . . . . . . . . . . . . . . . . . . ",
"+ + + + + + + + + + + + + + + + + + + + ",
"+ + + + + + + + + + + + + + + + + + + + ",
"+ + + + + + + + + + + + + + + + + + + + ",
"+ + + + + + + + + + + + + + + + + + + + ",
"+ + + + + + + @ # $ % & * + + + + + + + ",
"+ + + + + = - ; > , ' ) ! ~ { + + + + + ",
"+ + + + ] ~ ^ / ( _ : < ' ) ; [ + + + + ",
"+ + + + } | 1 2 3 4 5 6 2 1 7 8 + + + + ",
"+ + + 9 0 a ( ( b _ c 3 ( ( d e f + + + ",
"+ + + { = g g g h i j k 3 g g + l + + + ",
"+ + + m n o o p q r s r < t o u | + + + ",
"+ + + v u q w x y z A B y C w D E + + + ",
"+ + + + + F y G H I J I K L y M + + + + ",
"+ + + N O F H P Q R S R T J L + + + + + ",
"+ + + d U V T W X Y Z Y ` W  .+ ..+ + + ",
"+ + + + +.@.b #.$.%.&.%.*.=.U b + + + + ",
"+ + + + M -.;.>.,.H J '.).!.+.M + + + + ",
"+ + + + + ~.o {.1 ' ].2 ( o ~.+ + + + + ",
"+ + + + + + + d +.=.=.+.^.+ + + + + + + ",
"+ + + + + + + + + + + + + + + + + + + + ",
"+ + + + + + + + + + + + + + + + + + + + ",
"+ + + + + + + + + + + + + + + + + + + + ",
"+ + + + + + + + + + + + + + + + + + + + "};
