/* XPM */
static char * hide_inactive_xpm[] = {
"20 24 110 2",
"  	c None",
". 	c #747474",
"+ 	c #6C6C6C",
"@ 	c #4A4A4B",
"# 	c #313131",
"$ 	c #1B1B1B",
"% 	c #1A1A1A",
"& 	c #2F2F2F",
"* 	c #474747",
"= 	c #636363",
"- 	c #2A2A2A",
"; 	c #252525",
"> 	c #3F3F3F",
", 	c #737373",
"' 	c #808080",
") 	c #4B4B4B",
"! 	c #272727",
"~ 	c #262626",
"{ 	c #5E5E5E",
"] 	c #666666",
"^ 	c #464646",
"/ 	c #7E7E7E",
"( 	c #9B9B9B",
"_ 	c #C4C4C4",
": 	c #D6D6D6",
"< 	c #BBBBBB",
"[ 	c #606060",
"} 	c #3A3B3B",
"| 	c #4F4F4F",
"1 	c #909090",
"2 	c #ABABAB",
"3 	c #D8D8D8",
"4 	c #FDFDFD",
"5 	c #CECECE",
"6 	c #555555",
"7 	c #373737",
"8 	c #5D5C5C",
"9 	c #404040",
"0 	c #929292",
"a 	c #9C9C9C",
"b 	c #A0A0A0",
"c 	c #C3C3C3",
"d 	c #D0D0D0",
"e 	c #AAAAAA",
"f 	c #969696",
"g 	c #454545",
"h 	c #565656",
"i 	c #A7A7A7",
"j 	c #A9A9A9",
"k 	c #ADADAD",
"l 	c #AFAFAF",
"m 	c #575756",
"n 	c #575757",
"o 	c #828282",
"p 	c #B2B2B2",
"q 	c #B5B5B5",
"r 	c #C0C0C0",
"s 	c #C1C1C1",
"t 	c #BFBFBF",
"u 	c #BABABA",
"v 	c #B4B4B4",
"w 	c #8B8B8B",
"x 	c #616161",
"y 	c #BCBCBC",
"z 	c #CBCBCB",
"A 	c #CECECD",
"B 	c #D0D0CF",
"C 	c #CFCFCF",
"D 	c #CACACA",
"E 	c #BDBDBD",
"F 	c #959595",
"G 	c #595959",
"H 	c #C8C8C8",
"I 	c #D1D1D1",
"J 	c #D8D7D7",
"K 	c #DBDBDB",
"L 	c #DCDCDC",
"M 	c #D7D7D7",
"N 	c #898989",
"O 	c #707071",
"P 	c #686868",
"Q 	c #E1E1E1",
"R 	c #E5E5E5",
"S 	c #E7E7E7",
"T 	c #707070",
"U 	c #8D8D8D",
"V 	c #E2E2E2",
"W 	c #E6E6E6",
"X 	c #E9E9E9",
"Y 	c #EDEDED",
"Z 	c #F0F0F0",
"` 	c #A2A2A2",
" .	c #6A6A6A",
"..	c #F1F1F1",
"+.	c #F4F4F4",
"@.	c #F6F6F6",
"#.	c #EFEFEF",
"$.	c #B3B3B3",
"%.	c #6F6F6F",
"&.	c #A6A6A6",
"*.	c #787878",
"=.	c #B9B9B9",
"-.	c #DDDDDD",
";.	c #969797",
">.	c #777777",
",.	c #AEAEAE",
"'.	c #848484",
").	c #949494",
"!.	c #A5A5A5",
"~.	c #979796",
". . . . . . . . . . . . . . . . . . . . ",
"+ + + + + + + + + + + + + + + + + + + + ",
"+ + + + + + + + + + + + + + + + + + + + ",
"+ + + + + + + + + + + + + + + + + + + + ",
"+ + + + + + + + + + + + + + + + + + + + ",
"+ + + + + + + @ # $ % & * + + + + + + + ",
"+ + + + + = - ; > , ' ) ! ~ { + + + + + ",
"+ + + + ] ~ ^ / ( _ : < ' ) ; [ + + + + ",
"+ + + + } | 1 1 2 3 4 5 1 1 6 7 + + + + ",
"+ + + 8 9 0 a ( b c d e ( a f g h + + + ",
"+ + + { = i i i j k l k e i i + m + + + ",
"+ + + n o p p q < r s t u v p w | + + + ",
"+ + + x w y y c z A B C D c E F G + + + ",
"+ + + + + H z I J K L K M I z N + + + + ",
"+ + + O P H M K Q R S R Q L I + + + + + ",
"+ + + f T U V W X Y Z Y X W ` + F + + + ",
"+ + + + b  .b X ..+.@.+.#.$.%.( + + + + ",
"+ + + + N &.*.w =.3 -.c ;.>.` N + + + + ",
"+ + + + + o ,.f '.>.>.'.).,.o + + + + + ",
"+ + + + + + + f !.$.$.!.~.+ + + + + + + ",
"+ + + + + + + + + + + + + + + + + + + + ",
"+ + + + + + + + + + + + + + + + + + + + ",
"+ + + + + + + + + + + + + + + + + + + + ",
"+ + + + + + + + + + + + + + + + + + + + "};
