/* XPM */
static char * hide_pressed_xpm[] = {
"20 24 160 2",
"  	c None",
". 	c #747474",
"+ 	c #6C6C6C",
"@ 	c #684B44",
"# 	c #5E3227",
"$ 	c #561D0E",
"% 	c #561D0D",
"& 	c #5D3125",
"* 	c #684942",
"= 	c #72625E",
"- 	c #5C2716",
"; 	c #5F210B",
"> 	c #762D0D",
", 	c #995635",
"' 	c #9F6245",
") 	c #7C3717",
"! 	c #60220D",
"~ 	c #5C2515",
"{ 	c #71615C",
"] 	c #736560",
"^ 	c #5E210C",
"/ 	c #7B340F",
"( 	c #AD5716",
"_ 	c #BC743D",
": 	c #CBA080",
"< 	c #D2B49D",
"[ 	c #C6926D",
"} 	c #AE5716",
"| 	c #7E360F",
"1 	c #72625D",
"2 	c #67331E",
"3 	c #813E14",
"4 	c #BC6B22",
"5 	c #C58851",
"6 	c #D5B8A0",
"7 	c #E1E0DF",
"8 	c #CFAA88",
"9 	c #864015",
"0 	c #67301B",
"a 	c #71564B",
"b 	c #723414",
"c 	c #BE772A",
"d 	c #C57C2C",
"e 	c #C78236",
"f 	c #D1A675",
"g 	c #D4B28D",
"h 	c #C98A43",
"i 	c #C57C2B",
"j 	c #C0792B",
"k 	c #733515",
"l 	c #6F5347",
"m 	c #78513D",
"n 	c #93541D",
"o 	c #CF8E36",
"p 	c #CF8D36",
"q 	c #D39743",
"r 	c #D49B4E",
"s 	c #D0903B",
"t 	c #97571E",
"u 	c #764D39",
"v 	c #784426",
"w 	c #AE742B",
"x 	c #D9A040",
"y 	c #981909",
"z 	c #9D310A",
"A 	c #9E410A",
"B 	c #9F460A",
"C 	c #A0460A",
"D 	c #A0440A",
"E 	c #9E370A",
"F 	c #981D09",
"G 	c #B2782D",
"H 	c #764123",
"I 	c #7F4C2D",
"J 	c #B57B31",
"K 	c #DDAA48",
"L 	c #A1400A",
"M 	c #A2540B",
"N 	c #A45F0B",
"O 	c #A3640B",
"P 	c #A4630B",
"Q 	c #A4610B",
"R 	c #A2590B",
"S 	c #DDAA49",
"T 	c #B77F32",
"U 	c #7C4828",
"V 	c #8B654D",
"W 	c #A46D2A",
"X 	c #DDAE4E",
"Y 	c #DDB055",
"Z 	c #DEB665",
"` 	c #E2BD72",
" .	c #E3C381",
"..	c #DFBB72",
"+.	c #A76F2C",
"@.	c #896248",
"#.	c #8F7965",
"$.	c #8F5822",
"%.	c #D7A84E",
"&.	c #DEB65F",
"*.	c #DEBA6F",
"=.	c #DFC07F",
"-.	c #E0C58B",
";.	c #E0C691",
">.	c #DFC58B",
",.	c #DFBF7F",
"'.	c #DEBB71",
").	c #DAAF5B",
"!.	c #905722",
"~.	c #8D7561",
"{.	c #938F8E",
"].	c #8E6137",
"^.	c #A8752E",
"/.	c #DEB968",
"(.	c #DEBE78",
"_.	c #DFC488",
":.	c #DFC997",
"<.	c #E0CC9F",
"[.	c #DFC897",
"}.	c #DEC488",
"|.	c #DFBE79",
"1.	c #B38644",
"2.	c #8E6135",
"3.	c #918D8B",
"4.	c #9E9388",
"5.	c #915F28",
"6.	c #B38745",
"7.	c #DBBC7C",
"8.	c #DFC58D",
"9.	c #DFCB9D",
"0.	c #DFD0AC",
"a.	c #DCC38B",
"b.	c #BB945A",
"c.	c #92622C",
"d.	c #9E9284",
"e.	c #858585",
"f.	c #A4988B",
"g.	c #976E3B",
"h.	c #A67A3C",
"i.	c #BE9B60",
"j.	c #CDB584",
"k.	c #CFB98D",
"l.	c #C3A470",
"m.	c #AA8148",
"n.	c #966D3A",
"o.	c #A49888",
"p.	c #7F7F7F",
"q.	c #A4A29F",
"r.	c #A18B70",
"s.	c #9D7D51",
"t.	c #9B7135",
"u.	c #9B7034",
"v.	c #A18A6E",
"w.	c #A4A29E",
"x.	c #8F8F8F",
"y.	c #9A9B9B",
"z.	c #A6A6A6",
"A.	c #A5A6A5",
"B.	c #9A9A9B",
"C.	c #8F8F8E",
". . . . . . . . . . . . . . . . . . . . ",
"+ + + + + + + + + + + + + + + + + + + + ",
"+ + + + + + + + + + + + + + + + + + + + ",
"+ + + + + + + + + + + + + + + + + + + + ",
"+ + + + + + + + + + + + + + + + + + + + ",
"+ + + + + + + @ # $ % & * + + + + + + + ",
"+ + + + + = - ; > , ' ) ! ~ { + + + + + ",
"+ + + + ] ^ / ( _ : < [ } | ^ 1 + + + + ",
"+ + + + 2 3 4 4 5 6 7 8 4 4 9 0 + + + + ",
"+ + + a b c d d e f g h i d j k l + + + ",
"+ + + m n o o p q r r q s o o t u + + + ",
"+ + + v w x y z A B C D E F x G H + + + ",
"+ + + I J K L M N O P Q R L S T U + + + ",
"+ + + V W X Y Z `  . .` ..Z Y +.@.+ + + ",
"+ + + #.$.%.&.*.=.-.;.>.,.'.).!.~.+ + + ",
"+ + + {.].^./.(._.:.<.[.}.|.1.2.3.+ + + ",
"+ + + + 4.5.6.7.8.9.0.9.a.b.c.d.+ + + + ",
"+ + + + e.f.g.h.i.j.k.l.m.n.o.e.+ + + + ",
"+ + + + + p.q.r.s.t.u.s.v.w.p.+ + + + + ",
"+ + + + + + + x.y.z.A.B.C.+ + + + + + + ",
"+ + + + + + + + + + + + + + + + + + + + ",
"+ + + + + + + + + + + + + + + + + + + + ",
"+ + + + + + + + + + + + + + + + + + + + ",
"+ + + + + + + + + + + + + + + + + + + + "};
