/* XPM */
static char * hide_prelight_xpm[] = {
"20 24 160 2",
"  	c None",
". 	c #747474",
"+ 	c #6C6C6C",
"@ 	c #6D4C44",
"# 	c #663427",
"$ 	c #601F0E",
"% 	c #601E0D",
"& 	c #653225",
"* 	c #6D4A42",
"= 	c #75635E",
"- 	c #662916",
"; 	c #6C240C",
"> 	c #85320E",
", 	c #AC613C",
"' 	c #B36F4E",
") 	c #8D3E1A",
"! 	c #6D260E",
"~ 	c #662815",
"{ 	c #74625C",
"] 	c #766660",
"^ 	c #69250C",
"/ 	c #8C3B11",
"( 	c #C36119",
"_ 	c #D48245",
": 	c #E5B591",
"< 	c #EECCB2",
"[ 	c #E1A67B",
"} 	c #C46219",
"| 	c #8F3D11",
"1 	c #75635D",
"2 	c #71371E",
"3 	c #924516",
"4 	c #D47926",
"5 	c #DE9A5C",
"6 	c #F1D1B5",
"7 	c #FFFEFD",
"8 	c #EBC19A",
"9 	c #984817",
"0 	c #71341C",
"a 	c #77584B",
"b 	c #803B16",
"c 	c #D7862F",
"d 	c #E08D32",
"e 	c #DF8D31",
"f 	c #E1933D",
"g 	c #ECBB85",
"h 	c #F0C9A0",
"i 	c #E49B4C",
"j 	c #D98830",
"k 	c #813C17",
"l 	c #755447",
"m 	c #835741",
"n 	c #A65E21",
"o 	c #EAA03D",
"p 	c #EBA443",
"q 	c #ECA84C",
"r 	c #EDA94F",
"s 	c #EBA343",
"t 	c #AA6122",
"u 	c #81533B",
"v 	c #854B29",
"w 	c #C48331",
"x 	c #F5B648",
"y 	c #BD550D",
"z 	c #C2660D",
"A 	c #C3710E",
"B 	c #C4740E",
"C 	c #C4730E",
"D 	c #C2690D",
"E 	c #BE570D",
"F 	c #C98732",
"G 	c #844825",
"H 	c #8D5430",
"I 	c #CC8C36",
"J 	c #FBC051",
"K 	c #C46F0E",
"L 	c #C67F0F",
"M 	c #C7880F",
"N 	c #C68C0F",
"O 	c #C78B0F",
"P 	c #C78A0F",
"Q 	c #C6820F",
"R 	c #C4700E",
"S 	c #FBC052",
"T 	c #CF9039",
"U 	c #8B502B",
"V 	c #996F53",
"W 	c #B97B2F",
"X 	c #FBC457",
"Y 	c #FBC760",
"Z 	c #FCCE72",
"` 	c #FDD583",
" .	c #FDD98E",
"..	c #FDDA92",
"+.	c #FDD483",
"@.	c #FBCD72",
"#.	c #BD7D32",
"$.	c #986B4E",
"%.	c #9C826D",
"&.	c #A16326",
"*.	c #F3BF58",
"=.	c #FBCD6C",
"-.	c #FCD37E",
";.	c #FDDA91",
">.	c #FDE09F",
",.	c #FDE2A5",
"'.	c #FDDF9E",
").	c #FCD990",
"!.	c #FBD37F",
"~.	c #F7C767",
"{.	c #A26325",
"].	c #9A7E67",
"^.	c #9B9795",
"/.	c #9E6C3C",
"(.	c #BE8434",
"_.	c #FCD276",
":.	c #FCD888",
"<.	c #FCDE9A",
"[.	c #FDE4AC",
"}.	c #FDE7B5",
"|.	c #FDE3AB",
"1.	c #FCDD9A",
"2.	c #CA984D",
"3.	c #9E6B3A",
"4.	c #999592",
"5.	c #ACA093",
"6.	c #A36A2B",
"7.	c #CA994E",
"8.	c #F8D58C",
"9.	c #FCE0A0",
"0.	c #FDE6B2",
"a.	c #FDEBC3",
"b.	c #FADD9E",
"c.	c #D3A766",
"d.	c #A46E30",
"e.	c #AC9E8F",
"f.	c #898989",
"g.	c #B3A697",
"h.	c #A87A41",
"i.	c #BB8A44",
"j.	c #D8B06D",
"k.	c #E9CD96",
"l.	c #EBD2A1",
"m.	c #DDBA7F",
"n.	c #C09251",
"o.	c #A8793F",
"p.	c #B3A594",
"q.	c #888888",
"r.	c #B2AFAC",
"s.	c #B19979",
"t.	c #AE8A58",
"u.	c #AD7E3A",
"v.	c #AD7D39",
"w.	c #AF8A58",
"x.	c #B19877",
"y.	c #B2AFAB",
"z.	c #979797",
"A.	c #A5A5A5",
"B.	c #B3B3B3",
"C.	c #969695",
". . . . . . . . . . . . . . . . . . . . ",
"+ + + + + + + + + + + + + + + + + + + + ",
"+ + + + + + + + + + + + + + + + + + + + ",
"+ + + + + + + + + + + + + + + + + + + + ",
"+ + + + + + + + + + + + + + + + + + + + ",
"+ + + + + + + @ # $ % & * + + + + + + + ",
"+ + + + + = - ; > , ' ) ! ~ { + + + + + ",
"+ + + + ] ^ / ( _ : < [ } | ^ 1 + + + + ",
"+ + + + 2 3 4 4 5 6 7 8 4 4 9 0 + + + + ",
"+ + + a b c d e f g h i e d j k l + + + ",
"+ + + m n o o o p q r q s o o t u + + + ",
"+ + + v w x y z A B B C D E x F G + + + ",
"+ + + H I J K L M N O P Q R S T U + + + ",
"+ + + V W X Y Z `  ... .+.@.Y #.$.+ + + ",
"+ + + %.&.*.=.-.;.>.,.'.).!.~.{.].+ + + ",
"+ + + ^./.(._.:.<.[.}.|.1.:.2.3.4.+ + + ",
"+ + + + 5.6.7.8.9.0.a.0.b.c.d.e.+ + + + ",
"+ + + + f.g.h.i.j.k.l.m.n.o.p.f.+ + + + ",
"+ + + + + q.r.s.t.u.v.w.x.y.q.+ + + + + ",
"+ + + + + + + z.A.B.B.A.C.+ + + + + + + ",
"+ + + + + + + + + + + + + + + + + + + + ",
"+ + + + + + + + + + + + + + + + + + + + ",
"+ + + + + + + + + + + + + + + + + + + + ",
"+ + + + + + + + + + + + + + + + + + + + "};
