/* XPM */
static char * hide_active_xpm[] = {
"20 24 159 2",
"  	c None",
". 	c #747474",
"+ 	c #6C6C6C",
"@ 	c #6D4C44",
"# 	c #663427",
"$ 	c #60200F",
"% 	c #601E0D",
"& 	c #653225",
"* 	c #6C4A41",
"= 	c #662917",
"- 	c #6C250C",
"; 	c #86330E",
"> 	c #AB603B",
", 	c #B46F4E",
"' 	c #8E3E1B",
") 	c #6D260E",
"! 	c #652714",
"~ 	c #6E6967",
"{ 	c #69260C",
"] 	c #8C3B12",
"^ 	c #C26019",
"/ 	c #D38145",
"( 	c #E5B591",
"_ 	c #EECCB2",
": 	c #E1A87D",
"< 	c #C46119",
"[ 	c #8F3D11",
"} 	c #69250C",
"| 	c #6F6764",
"1 	c #713720",
"2 	c #924516",
"3 	c #D47926",
"4 	c #DE995A",
"5 	c #F0D1B4",
"6 	c #FFFDFC",
"7 	c #EBC39E",
"8 	c #984818",
"9 	c #71341B",
"0 	c #76584C",
"a 	c #803B16",
"b 	c #D8862F",
"c 	c #E08D32",
"d 	c #DF8D31",
"e 	c #E0923C",
"f 	c #EBBA84",
"g 	c #F0C9A0",
"h 	c #E49B4C",
"i 	c #D98830",
"j 	c #823C16",
"k 	c #755447",
"l 	c #825741",
"m 	c #A35C20",
"n 	c #EAA03D",
"o 	c #EAA342",
"p 	c #ECA74B",
"q 	c #EDA94E",
"r 	c #EBA74B",
"s 	c #EBA343",
"t 	c #AA6222",
"u 	c #83533A",
"v 	c #854B29",
"w 	c #C17E2F",
"x 	c #F5B648",
"y 	c #F5B548",
"z 	c #F5B94F",
"A 	c #F8BF5C",
"B 	c #F9C366",
"C 	c #F9C469",
"D 	c #F8C266",
"E 	c #F7BE5C",
"F 	c #F5B84E",
"G 	c #C98732",
"H 	c #854926",
"I 	c #8D5430",
"J 	c #C98934",
"K 	c #FBC051",
"L 	c #FBC052",
"M 	c #FCC762",
"N 	c #FECE73",
"O 	c #FED17C",
"P 	c #FED27F",
"Q 	c #FCCD73",
"R 	c #FBC663",
"S 	c #FBC153",
"T 	c #CF9039",
"U 	c #8C512B",
"V 	c #996F53",
"W 	c #B7792E",
"X 	c #FBC457",
"Y 	c #FBC760",
"Z 	c #FCCE71",
"` 	c #FED582",
" .	c #FED88E",
"..	c #FED992",
"+.	c #FDD482",
"@.	c #FBCD72",
"#.	c #BE7D31",
"$.	c #986C4D",
"%.	c #9B816C",
"&.	c #A16326",
"*.	c #F3BE57",
"=.	c #FBCD6C",
"-.	c #FCD27E",
";.	c #FDDA90",
">.	c #FEDF9E",
",.	c #FEE1A4",
"'.	c #FCD98F",
").	c #FBD37F",
"!.	c #F6C767",
"~.	c #A26425",
"{.	c #9A7F67",
"].	c #989594",
"^.	c #9E6E3D",
"/.	c #BF8535",
"(.	c #FCD276",
"_.	c #FCD888",
":.	c #FCDE9A",
"<.	c #FDE3AB",
"[.	c #FDE7B4",
"}.	c #FCDD9B",
"|.	c #C9974E",
"1.	c #9E6B38",
"2.	c #989591",
"3.	c #ADA093",
"4.	c #A26A2B",
"5.	c #CA984D",
"6.	c #F8D58B",
"7.	c #FCE0A0",
"8.	c #FDE6B1",
"9.	c #FDEBC3",
"0.	c #FDE6B2",
"a.	c #FADD9E",
"b.	c #D3A866",
"c.	c #A46F31",
"d.	c #AC9B8B",
"e.	c #898989",
"f.	c #B4A799",
"g.	c #A97B42",
"h.	c #BB8944",
"i.	c #D9B16E",
"j.	c #EACD96",
"k.	c #EDD3A3",
"l.	c #DEBB80",
"m.	c #C19453",
"n.	c #A97B3E",
"o.	c #B2A493",
"p.	c #888888",
"q.	c #B1AFAC",
"r.	c #B19979",
"s.	c #AE8A59",
"t.	c #AE7D3B",
"u.	c #AD7D39",
"v.	c #AF8A58",
"w.	c #B19877",
"x.	c #B2AEAA",
"y.	c #969696",
"z.	c #A5A5A5",
"A.	c #B3B3B3",
"B.	c #969695",
". . . . . . . . . . . . . . . . . . . . ",
"+ + + + + + + + + + + + + + + + + + + + ",
"+ + + + + + + + + + + + + + + + + + + + ",
"+ + + + + + + + + + + + + + + + + + + + ",
"+ + + + + + + + + + + + + + + + + + + + ",
"+ + + + + + + @ # $ % & * + + + + + + + ",
"+ + + + + + = - ; > , ' ) ! ~ + + + + + ",
"+ + + + + { ] ^ / ( _ : < [ } | + + + + ",
"+ + + + 1 2 3 3 4 5 6 7 3 3 8 9 + + + + ",
"+ + + 0 a b c d e f g h d c i j k + + + ",
"+ + + l m n n n o p q r s n n t u + + + ",
"+ + + v w x y z A B C D E F x G H + + + ",
"+ + + I J K L M N O P O Q R S T U + + + ",
"+ + + V W X Y Z `  ... .+.@.Y #.$.+ + + ",
"+ + + %.&.*.=.-.;.>.,.>.'.).!.~.{.+ + + ",
"+ + + ].^./.(._.:.<.[.<.}._.|.1.2.+ + + ",
"+ + + + 3.4.5.6.7.8.9.0.a.b.c.d.+ + + + ",
"+ + + + e.f.g.h.i.j.k.l.m.n.o.e.+ + + + ",
"+ + + + + p.q.r.s.t.u.v.w.x.p.+ + + + + ",
"+ + + + + + + y.z.A.A.z.B.+ + + + + + + ",
"+ + + + + + + + + + + + + + + + + + + + ",
"+ + + + + + + + + + + + + + + + + + + + ",
"+ + + + + + + + + + + + + + + + + + + + ",
"+ + + + + + + + + + + + + + + + + + + + "};
