/* XPM */
static char * maximize_pressed_xpm[] = {
"20 24 139 2",
"  	c None",
". 	c #747474",
"+ 	c #6C6C6C",
"@ 	c #454D43",
"# 	c #2D3826",
"$ 	c #15240E",
"% 	c #2C3726",
"& 	c #454D42",
"* 	c #60655D",
"= 	c #213515",
"- 	c #1B330B",
"; 	c #26490D",
"> 	c #4F7034",
", 	c #5A7A42",
"' 	c #2E5016",
") 	c #1B340B",
"! 	c #213415",
"~ 	c #62685E",
"{ 	c #1D370C",
"] 	c #2B500E",
"^ 	c #437A15",
"/ 	c #64913E",
"( 	c #97B280",
"_ 	c #ADBF9D",
": 	c #86A76A",
"< 	c #1D360C",
"[ 	c #304C1C",
"} 	c #345C12",
"| 	c #52871D",
"1 	c #779F4F",
"2 	c #4D7132",
"3 	c #9DB783",
"4 	c #345C13",
"5 	c #2F4B1C",
"6 	c #57674B",
"7 	c #315713",
"8 	c #588B24",
"9 	c #5D9127",
"0 	c #659432",
"a 	c #25491D",
"b 	c #6C9A3E",
"c 	c #598C25",
"d 	c #325713",
"e 	c #546547",
"f 	c #526D3D",
"g 	c #45731B",
"h 	c #689931",
"i 	c #689830",
"j 	c #6D9F35",
"k 	c #235018",
"l 	c #6C9B36",
"m 	c #46741C",
"n 	c #4E6B38",
"o 	c #466E26",
"p 	c #598A26",
"q 	c #74A239",
"r 	c #225118",
"s 	c #265F1B",
"t 	c #27651C",
"u 	c #598A27",
"v 	c #426C22",
"w 	c #4F7B2C",
"x 	c #63942D",
"y 	c #7EAB41",
"z 	c #296F1E",
"A 	c #357520",
"B 	c #367520",
"C 	c #7FAB42",
"D 	c #4C7928",
"E 	c #688A4D",
"F 	c #5E9128",
"G 	c #8AB44A",
"H 	c #8FB652",
"I 	c #99BB62",
"J 	c #A6C376",
"K 	c #528825",
"L 	c #A0BF6F",
"M 	c #5E9129",
"N 	c #648747",
"O 	c #789066",
"P 	c #518921",
"Q 	c #90B94F",
"R 	c #9CC05F",
"S 	c #A4C570",
"T 	c #ACC97F",
"U 	c #639229",
"V 	c #B3CC8B",
"W 	c #ACC87F",
"X 	c #A3C570",
"Y 	c #98BD5C",
"Z 	c #528922",
"` 	c #748D61",
" .	c #8F928E",
"..	c #5B8C35",
"+.	c #6B9F32",
"@.	c #A7CA6B",
"#.	c #AECC7A",
"$.	c #B6CF8A",
"%.	c #6F932C",
"&.	c #BED298",
"*.	c #AECC7B",
"=.	c #78A743",
"-.	c #5C8C35",
";.	c #8C8F8A",
">.	c #909F86",
",.	c #568F26",
"'.	c #7FAE48",
").	c #B5D180",
"!.	c #BFD591",
"~.	c #C5D7A0",
"{.	c #CDD9AF",
"].	c #BDD48F",
"^.	c #8AB55B",
"/.	c #5A922D",
"(.	c #8E9D84",
"_.	c #868686",
":.	c #95A48A",
"<.	c #64963A",
"[.	c #71A53F",
"}.	c #96BD66",
"|.	c #B1CC89",
"1.	c #B6CD91",
"2.	c #9EC174",
"3.	c #78A949",
"4.	c #64983B",
"5.	c #95A489",
"6.	c #757575",
"7.	c #808080",
"8.	c #A2A49E",
"9.	c #84A16E",
"0.	c #729D52",
"a.	c #639B35",
"b.	c #A0A39E",
"c.	c #8F8F8F",
"d.	c #9B9B9B",
"e.	c #A6A6A6",
"f.	c #A5A6A5",
"g.	c #9A9A9B",
"h.	c #8F8F8E",
". . . . . . . . . . . . . . . . . . . . ",
"+ + + + + + + + + + + + + + + + + + + + ",
"+ + + + + + + + + + + + + + + + + + + + ",
"+ + + + + + + + + + + + + + + + + + + + ",
"+ + + + + + + + + + + + + + + + + + + + ",
"+ + + + + + + @ # $ $ % & + + + + + + + ",
"+ + + + + * = - ; > , ' ) ! * + + + + + ",
"+ + + + ~ { ] ^ / ( _ : ^ ] < ~ + + + + ",
"+ + + + [ } | | 1 2 2 3 | | 4 5 + + + + ",
"+ + + 6 7 8 9 9 0 a a b 9 9 c d e + + + ",
"+ + + f g h i i j k k j l i h m n + + + ",
"+ + + o p q r s t t t t s r q u v + + + ",
"+ + + w x y t z A B B A z t C x D + + + ",
"+ + + E F G H I J K K J L I H M N + + + ",
"+ + + O P Q R S T U U V W X Y Z ` + + + ",
"+ + +  ...+.@.#.$.%.%.&.$.*.=.-.;.+ + + ",
"+ + + + >.,.'.).!.~.{.~.].^./.(.+ + + + ",
"+ + + + _.:.<.[.}.|.1.2.3.4.5.6.+ + + + ",
"+ + + + + 7.8.9.0.a.a.0.9.b.6.+ + + + + ",
"+ + + + + + + c.d.e.f.g.h.+ + + + + + + ",
"+ + + + + + + + + + + + + + + + + + + + ",
"+ + + + + + + + + + + + + + + + + + + + ",
"+ + + + + + + + + + + + + + + + + + + + ",
"+ + + + + + + + + + + + + + + + + + + + "};
