/* XPM */
static char * maximize_prelight_xpm[] = {
"20 24 139 2",
"  	c None",
". 	c #747474",
"+ 	c #6C6C6C",
"@ 	c #464E43",
"# 	c #2D3A26",
"$ 	c #16270E",
"% 	c #2D3926",
"& 	c #464E42",
"* 	c #61665D",
"= 	c #223915",
"- 	c #1E390C",
"; 	c #2B510E",
"> 	c #587E3B",
", 	c #66894B",
"' 	c #345A19",
") 	c #223815",
"! 	c #626A5E",
"~ 	c #203E0C",
"{ 	c #305B10",
"] 	c #4C8917",
"^ 	c #71A446",
"/ 	c #ABCA91",
"( 	c #C4D9B2",
"_ 	c #98BC78",
": 	c #1F3D0C",
"< 	c #33541D",
"[ 	c #3B6714",
"} 	c #5C9921",
"| 	c #86B35A",
"1 	c #4D7132",
"2 	c #B2CE95",
"3 	c #3B6815",
"4 	c #32521D",
"5 	c #596B4C",
"6 	c #376215",
"7 	c #649E29",
"8 	c #69A32C",
"9 	c #71A838",
"0 	c #25491D",
"a 	c #7BAF45",
"b 	c #69A32B",
"c 	c #659E2A",
"d 	c #376315",
"e 	c #566948",
"f 	c #587741",
"g 	c #4E811D",
"h 	c #76AD36",
"i 	c #75AD36",
"j 	c #82BD3F",
"k 	c #235018",
"l 	c #79B03D",
"m 	c #4F821E",
"n 	c #53743B",
"o 	c #4D7B28",
"p 	c #659C2B",
"q 	c #83B840",
"r 	c #225118",
"s 	c #265F1B",
"t 	c #27651C",
"u 	c #659C2C",
"v 	c #497925",
"w 	c #578A2F",
"x 	c #70A732",
"y 	c #8FC14A",
"z 	c #296F1E",
"A 	c #357520",
"B 	c #367520",
"C 	c #90C14B",
"D 	c #54872B",
"E 	c #729954",
"F 	c #6AA32D",
"G 	c #9CCB53",
"H 	c #A1CE5D",
"I 	c #ADD470",
"J 	c #C0DF90",
"K 	c #528825",
"L 	c #B5D97F",
"M 	c #ACD36F",
"N 	c #6BA32E",
"O 	c #6D964D",
"P 	c #829C6D",
"Q 	c #5B9A24",
"R 	c #A2D159",
"S 	c #B0D96C",
"T 	c #B9DF7F",
"U 	c #C3E491",
"V 	c #639229",
"W 	c #CBE79E",
"X 	c #C3E390",
"Y 	c #B9DE7E",
"Z 	c #ABD668",
"` 	c #5C9A25",
" .	c #7D9A67",
"..	c #979A95",
"+.	c #669C3A",
"@.	c #79B538",
"#.	c #BEE479",
"$.	c #C6E78A",
"%.	c #CFEB9C",
"&.	c #6F932C",
"*.	c #D7EEAC",
"=.	c #CFEA9C",
"-.	c #87BD4C",
";.	c #939791",
">.	c #9DAE90",
",.	c #60A02A",
"'.	c #90C552",
").	c #CDED91",
"!.	c #D9F1A4",
"~.	c #E0F4B5",
"{.	c #E7F6C7",
"].	c #D5F0A2",
"^.	c #9DCD67",
"/.	c #65A431",
"(.	c #9AAC8E",
"_.	c #8B8B8B",
":.	c #A3B495",
"<.	c #6FA83F",
"[.	c #7FBA46",
"}.	c #AAD774",
"|.	c #C9E79C",
"1.	c #CEE9A6",
"2.	c #B3DB83",
"3.	c #87BF53",
"4.	c #6FA940",
"5.	c #A2B395",
"6.	c #878787",
"7.	c #898989",
"8.	c #AEB1AB",
"9.	c #90B178",
"0.	c #7DAE59",
"a.	c #6EAD3A",
"b.	c #ADB0AA",
"c.	c #979797",
"d.	c #A5A6A6",
"e.	c #B4B4B4",
"f.	c #B3B3B3",
"g.	c #A4A4A5",
"h.	c #969695",
". . . . . . . . . . . . . . . . . . . . ",
"+ + + + + + + + + + + + + + + + + + + + ",
"+ + + + + + + + + + + + + + + + + + + + ",
"+ + + + + + + + + + + + + + + + + + + + ",
"+ + + + + + + + + + + + + + + + + + + + ",
"+ + + + + + + @ # $ $ % & + + + + + + + ",
"+ + + + + * = - ; > , ' - ) * + + + + + ",
"+ + + + ! ~ { ] ^ / ( _ ] { : ! + + + + ",
"+ + + + < [ } } | 1 1 2 } } 3 4 + + + + ",
"+ + + 5 6 7 8 8 9 0 0 a b 8 c d e + + + ",
"+ + + f g h i i j k k j l i h m n + + + ",
"+ + + o p q r s t t t t s r q u v + + + ",
"+ + + w x y t z A B B A z t C x D + + + ",
"+ + + E F G H I J K K J L M H N O + + + ",
"+ + + P Q R S T U V V W X Y Z `  .+ + + ",
"+ + + ..+.@.#.$.%.&.&.*.=.$.-.+.;.+ + + ",
"+ + + + >.,.'.).!.~.{.~.].^./.(.+ + + + ",
"+ + + + _.:.<.[.}.|.1.2.3.4.5.6.+ + + + ",
"+ + + + + 7.8.9.0.a.a.0.9.b.6.+ + + + + ",
"+ + + + + + + c.d.e.f.g.h.+ + + + + + + ",
"+ + + + + + + + + + + + + + + + + + + + ",
"+ + + + + + + + + + + + + + + + + + + + ",
"+ + + + + + + + + + + + + + + + + + + + ",
"+ + + + + + + + + + + + + + + + + + + + "};
