/* XPM */
static char * maximize_active_xpm[] = {
"20 24 155 2",
"  	c None",
". 	c #747474",
"+ 	c #6C6C6C",
"@ 	c #464E43",
"# 	c #2D3A26",
"$ 	c #16270E",
"% 	c #2D3926",
"& 	c #464E42",
"* 	c #61665D",
"= 	c #223915",
"- 	c #1E390C",
"; 	c #2B510E",
"> 	c #587E3B",
", 	c #66894B",
"' 	c #345A19",
") 	c #223815",
"! 	c #626A5E",
"~ 	c #203E0C",
"{ 	c #305B10",
"] 	c #4C8917",
"^ 	c #71A446",
"/ 	c #ABCA91",
"( 	c #C4D9B2",
"_ 	c #98BC78",
": 	c #1F3D0C",
"< 	c #33541D",
"[ 	c #3B6714",
"} 	c #5C9921",
"| 	c #86B35A",
"1 	c #C8DDB4",
"2 	c #FEFFFE",
"3 	c #B2CE95",
"4 	c #3B6815",
"5 	c #32521D",
"6 	c #596B4C",
"7 	c #376215",
"8 	c #649E29",
"9 	c #69A32C",
"0 	c #71A838",
"a 	c #A7C983",
"b 	c #B8D39A",
"c 	c #7BAF45",
"d 	c #69A32B",
"e 	c #659E2A",
"f 	c #376315",
"g 	c #566948",
"h 	c #587741",
"i 	c #4E811D",
"j 	c #76AD36",
"k 	c #75AD36",
"l 	c #7AB13E",
"m 	c #81B446",
"n 	c #82B549",
"o 	c #80B446",
"p 	c #79B03D",
"q 	c #4F821E",
"r 	c #53743B",
"s 	c #4D7B28",
"t 	c #659C2B",
"u 	c #83B840",
"v 	c #83B740",
"w 	c #89BB49",
"x 	c #93C257",
"y 	c #99C660",
"z 	c #9BC763",
"A 	c #98C560",
"B 	c #92C156",
"C 	c #88BA48",
"D 	c #659C2C",
"E 	c #497925",
"F 	c #578A2F",
"G 	c #70A732",
"H 	c #8FC14A",
"I 	c #90C14A",
"J 	c #9CC95D",
"K 	c #A6D06E",
"L 	c #ACD277",
"M 	c #AED37A",
"N 	c #A4CE6D",
"O 	c #9AC75C",
"P 	c #90C14B",
"Q 	c #54872B",
"R 	c #729954",
"S 	c #6AA32D",
"T 	c #9CCB53",
"U 	c #A1CE5D",
"V 	c #AED570",
"W 	c #B7DA80",
"X 	c #BEDE8C",
"Y 	c #C1DF91",
"Z 	c #B6D97F",
"` 	c #ACD36F",
" .	c #6BA32E",
"..	c #6D964D",
"+.	c #829C6D",
"@.	c #5B9A24",
"#.	c #A2D159",
"$.	c #B0D96C",
"%.	c #BADF7F",
"&.	c #C4E591",
"*.	c #CCE89F",
"=.	c #CFEAA5",
"-.	c #C3E390",
";.	c #B9DE7E",
">.	c #ABD668",
",.	c #5C9A25",
"'.	c #7D9A67",
").	c #979A95",
"!.	c #669C3A",
"~.	c #79B538",
"{.	c #BEE479",
"].	c #C6E78A",
"^.	c #CFEB9C",
"/.	c #D8EFAD",
"(.	c #DCF1B7",
"_.	c #D8EEAC",
":.	c #CFEA9C",
"<.	c #C6E88A",
"[.	c #87BD4C",
"}.	c #939791",
"|.	c #9DAE90",
"1.	c #60A02A",
"2.	c #90C552",
"3.	c #CDED91",
"4.	c #D9F2A4",
"5.	c #E0F4B5",
"6.	c #E8F6C7",
"7.	c #D5F0A2",
"8.	c #9DCD67",
"9.	c #65A431",
"0.	c #9AAC8E",
"a.	c #8B8B8B",
"b.	c #A3B495",
"c.	c #6FA83F",
"d.	c #7FBA46",
"e.	c #AAD774",
"f.	c #C9E89C",
"g.	c #CEEAA6",
"h.	c #B3DB83",
"i.	c #87BF53",
"j.	c #6FA940",
"k.	c #A2B395",
"l.	c #878787",
"m.	c #898989",
"n.	c #AEB1AB",
"o.	c #90B178",
"p.	c #7DAE59",
"q.	c #6EAD3A",
"r.	c #ADB0AA",
"s.	c #979797",
"t.	c #A5A6A6",
"u.	c #B4B4B4",
"v.	c #B3B3B3",
"w.	c #A4A4A5",
"x.	c #969695",
". . . . . . . . . . . . . . . . . . . . ",
"+ + + + + + + + + + + + + + + + + + + + ",
"+ + + + + + + + + + + + + + + + + + + + ",
"+ + + + + + + + + + + + + + + + + + + + ",
"+ + + + + + + + + + + + + + + + + + + + ",
"+ + + + + + + @ # $ $ % & + + + + + + + ",
"+ + + + + * = - ; > , ' - ) * + + + + + ",
"+ + + + ! ~ { ] ^ / ( _ ] { : ! + + + + ",
"+ + + + < [ } } | 1 2 3 } } 4 5 + + + + ",
"+ + + 6 7 8 9 9 0 a b c d 9 e f g + + + ",
"+ + + h i j k k l m n o p k j q r + + + ",
"+ + + s t u v w x y z A B C u D E + + + ",
"+ + + F G H I J K L M L N O P G Q + + + ",
"+ + + R S T U V W X Y X Z ` U  ...+ + + ",
"+ + + +.@.#.$.%.&.*.=.*.-.;.>.,.'.+ + + ",
"+ + + ).!.~.{.].^./.(._.:.<.[.!.}.+ + + ",
"+ + + + |.1.2.3.4.5.6.5.7.8.9.0.+ + + + ",
"+ + + + a.b.c.d.e.f.g.h.i.j.k.l.+ + + + ",
"+ + + + + m.n.o.p.q.q.p.o.r.l.+ + + + + ",
"+ + + + + + + s.t.u.v.w.x.+ + + + + + + ",
"+ + + + + + + + + + + + + + + + + + + + ",
"+ + + + + + + + + + + + + + + + + + + + ",
"+ + + + + + + + + + + + + + + + + + + + ",
"+ + + + + + + + + + + + + + + + + + + + "};
