/* XPM */
static char * menu_active_xpm[] = {
"20 24 33 1",
" 	c None",
".	c #747474",
"+	c #6C6C6C",
"@	c #979798",
"#	c #A8A8A8",
"$	c #ACACAC",
"%	c #9B9A9B",
"&	c #989898",
"*	c #D0D0D0",
"=	c #FFFFFF",
"-	c #E0E0E0",
";	c #9F9F9F",
">	c #AEADAD",
",	c #CCCCCC",
"'	c #B0B0B0",
")	c #D1D1D1",
"!	c #939393",
"~	c #E6E6E6",
"{	c #F1F1F1",
"]	c #8A8A8A",
"^	c #787878",
"/	c #919191",
"(	c #C3C3C3",
"_	c #C9C9C9",
":	c #868686",
"<	c #9A9A9A",
"[	c #8F8F8F",
"}	c #959595",
"|	c #8E8F8E",
"1	c #959494",
"2	c #868687",
"3	c #B2B2B2",
"4	c #9D9D9D",
"....................",
"++++++++++++++++++++",
"++++++++++++++++++++",
"++++++++++++++++++++",
"++++++++++++++++++++",
"++++++++++++++++++++",
"++++++++++++++++++++",
"++++++++++++++++++++",
"++++++++++++++++++++",
"++++++++++++++++++++",
"++++++++@#$%++++++++",
"+++++++&*==-;+++++++",
"+++++++>====,+++++++",
"+++++++'====)+++++++",
"+++++++!~=={#+++++++",
"++++++]^/(_;^:++++++",
"+++++++<[!}|12++++++",
"++++++++&'34++++++++",
"++++++++++++++++++++",
"++++++++++++++++++++",
"++++++++++++++++++++",
"++++++++++++++++++++",
"++++++++++++++++++++",
"++++++++++++++++++++"};
