/* XPM */
static char * shade_toggled_active_xpm[] = {
"20 24 38 1",
" 	c None",
".	c #747474",
"+	c #6C6C6C",
"@	c #6A6A6A",
"#	c #6B6B6B",
"$	c #696969",
"%	c #979798",
"&	c #A8A8A8",
"*	c #ACACAC",
"=	c #9B9A9B",
"-	c #989898",
";	c #D0D0D0",
">	c #FFFFFF",
",	c #E0E0E0",
"'	c #9F9F9F",
")	c #AEADAD",
"!	c #CCCCCC",
"~	c #B0B0B0",
"{	c #D1D1D1",
"]	c #939393",
"^	c #E6E6E6",
"/	c #F1F1F1",
"(	c #8A8A8A",
"_	c #787878",
":	c #919191",
"<	c #C3C3C3",
"[	c #C9C9C9",
"}	c #868686",
"|	c #707070",
"1	c #9A9A9A",
"2	c #8F8F8F",
"3	c #959595",
"4	c #8E8F8E",
"5	c #959494",
"6	c #868687",
"7	c #B2B2B2",
"8	c #9D9D9D",
"9	c #747575",
"....................",
"++++++++++++++++++++",
"++++++++++++++++++++",
"++++++++++++++++++++",
"++++++++++++++++++++",
"++++++++++++++++++++",
"++++++++++++++++++++",
"++++++++++++++++++++",
"++++++++++++++++++++",
"++++++++@++#++++++++",
"+++++++$%&*=++++++++",
"+++++++-;>>,'+++++++",
"+++++++)>>>>!+++++++",
"+++++++~>>>>{+++++++",
"+++++++]^>>/&+++++++",
"++++++(_:<['_}|+++++",
"+++++++12]3456++++++",
"++++++++-~789+++++++",
"++++++++++++++++++++",
"++++++++++++++++++++",
"++++++++++++++++++++",
"++++++++++++++++++++",
"++++++++++++++++++++",
"++++++++++++++++++++"};
