/* XPM */
static char * shade_toggled_inactive_xpm[] = {
"20 24 47 1",
" 	c None",
".	c #747474",
"+	c #6C6C6C",
"@	c #6A6A6A",
"#	c #6B6B6B",
"$	c #696969",
"%	c #757575",
"&	c #828281",
"*	c #848383",
"=	c #797878",
"-	c #777777",
";	c #ADACAA",
">	c #DBD7D3",
",	c #DBD8D3",
"'	c #BEBCB8",
")	c #7E7E7D",
"!	c #6D6D6D",
"~	c #8C8B8A",
"{	c #DAD7D2",
"]	c #D5D1CC",
"^	c #D8D4CF",
"/	c #A8A6A4",
"(	c #6C6D6D",
"_	c #8E8D8C",
":	c #DBD7D2",
"<	c #D5D2CD",
"[	c #D7D3CE",
"}	c #ABA9A7",
"|	c #C1BFBC",
"1	c #D7D4D0",
"2	c #D7D3CF",
"3	c #CAC8C4",
"4	c #8B8B8A",
"5	c #A09F9D",
"6	c #A4A2A0",
"7	c #767676",
"8	c #969697",
"9	c #8C8C8C",
"0	c #8E8E8E",
"a	c #8D8D8E",
"b	c #8B8B8B",
"c	c #929191",
"d	c #717171",
"e	c #989898",
"f	c #B0B0B0",
"g	c #B2B2B2",
"h	c #9D9D9D",
"....................",
"++++++++++++++++++++",
"++++++++++++++++++++",
"++++++++++++++++++++",
"++++++++++++++++++++",
"++++++++++++++++++++",
"++++++++++++++++++++",
"++++++++++++++++++++",
"++++++++++++++++++++",
"++++++++@++#++++++++",
"+++++++$%&*=++++++++",
"+++++++-;>,')+++++++",
"++++++!~{]]^/!(+++++",
"+++++++_:]<[}+++++++",
"++++++++|1234+++++++",
"+++++++++567++++++++",
"+++++++890abcd++++++",
"++++++++efgh++++++++",
"++++++++++++++++++++",
"++++++++++++++++++++",
"++++++++++++++++++++",
"++++++++++++++++++++",
"++++++++++++++++++++",
"++++++++++++++++++++"};
