/* XPM */
static char * shade_pressed_xpm[] = {
"20 24 26 1",
" 	c None",
".	c #747474",
"+	c #6C6C6C",
"@	c #6A6A6A",
"#	c #6B6B6B",
"$	c #696969",
"%	c #707070",
"&	c #888887",
"*	c #898889",
"=	c #7A797A",
"-	c #939393",
";	c #A2A2A2",
">	c #989898",
",	c #80807F",
"'	c #898888",
")	c #929292",
"!	c #898989",
"~	c #9A9A9A",
"{	c #9D9D9D",
"]	c #868787",
"^	c #8F8F8F",
"/	c #919191",
"(	c #7A7A7A",
"_	c #888888",
":	c #8A8A8A",
"<	c #747574",
"....................",
"++++++++++++++++++++",
"++++++++++++++++++++",
"++++++++++++++++++++",
"++++++++++++++++++++",
"++++++++++++++++++++",
"++++++++++++++++++++",
"++++++++++++++++++++",
"++++++++++++++++++++",
"++++++++@++#++++++++",
"+++++++$%&*=++++++++",
"+++++++%-;;>,+++++++",
"+++++++';;;;)+++++++",
"+++++++!;;;;-+++++++",
"++++++++~;;{]+++++++",
"+++++++++^/(++++++++",
"+++++++%++++++++++++",
"++++++++%_:<++++++++",
"++++++++++++++++++++",
"++++++++++++++++++++",
"++++++++++++++++++++",
"++++++++++++++++++++",
"++++++++++++++++++++",
"++++++++++++++++++++"};
