/* XPM */
static char * shade_toggled_pressed_xpm[] = {
"20 24 25 1",
" 	c None",
".	c #747474",
"+	c #6C6C6C",
"@	c #6A6A6A",
"#	c #6B6B6B",
"$	c #696969",
"%	c #828282",
"&	c #888887",
"*	c #898889",
"=	c #848384",
"-	c #939393",
";	c #A2A2A2",
">	c #989898",
",	c #858584",
"'	c #6D6D6D",
")	c #838282",
"!	c #929292",
"~	c #6C6D6D",
"{	c #898989",
"]	c #9A9A9A",
"^	c #9D9D9D",
"/	c #7B7C7C",
"(	c #8F8F8F",
"_	c #919191",
":	c #8A8A8A",
"....................",
"++++++++++++++++++++",
"++++++++++++++++++++",
"++++++++++++++++++++",
"++++++++++++++++++++",
"++++++++++++++++++++",
"++++++++++++++++++++",
"++++++++++++++++++++",
"++++++++++++++++++++",
"++++++++@++#++++++++",
"+++++++$%&*=++++++++",
"++++++++-;;>,+++++++",
"++++++');;;;!'~+++++",
"+++++++{;;;;-+++++++",
"++++++++];;^/+++++++",
"+++++++++(_+++++++++",
"++++++++++++++++++++",
"+++++++++%:+++++++++",
"++++++++++++++++++++",
"++++++++++++++++++++",
"++++++++++++++++++++",
"++++++++++++++++++++",
"++++++++++++++++++++",
"++++++++++++++++++++"};
