/* XPM */
static char * shade_toggled_prelight_xpm[] = {
"20 24 38 1",
" 	c None",
".	c #747474",
"+	c #6C6C6C",
"@	c #6A6A6A",
"#	c #6B6B6B",
"$	c #696969",
"%	c #889193",
"&	c #919EA0",
"*	c #93A1A4",
"=	c #8B9396",
"-	c #899293",
";	c #A5BEC2",
">	c #BDE4E9",
",	c #ADCBCF",
"'	c #8D9899",
")	c #94A3A5",
"!	c #A3BBBE",
"~	c #95A5A7",
"{	c #A6BFC3",
"]	c #868E8F",
"^	c #B0D0D4",
"/	c #B6D8DD",
"(	c #818687",
"_	c #787878",
":	c #848B8D",
"<	c #9EB4B7",
"[	c #A1B8BC",
"}	c #8C9798",
"|	c #737575",
"1	c #899395",
"2	c #838A8B",
"3	c #868F90",
"4	c #838A8A",
"5	c #868F8F",
"6	c #77797A",
"7	c #94A4A7",
"8	c #96A7A9",
"9	c #8B9697",
"....................",
"++++++++++++++++++++",
"++++++++++++++++++++",
"++++++++++++++++++++",
"++++++++++++++++++++",
"++++++++++++++++++++",
"++++++++++++++++++++",
"++++++++++++++++++++",
"++++++++++++++++++++",
"++++++++@++#++++++++",
"+++++++$%&*=++++++++",
"+++++++-;>>,'+++++++",
"+++++++)>>>>!+++++++",
"+++++++~>>>>{+++++++",
"+++++++]^>>/&+++++++",
"++++++(_:<[}+|++++++",
"+++++++12]3456++++++",
"++++++++%789++++++++",
"++++++++++++++++++++",
"++++++++++++++++++++",
"++++++++++++++++++++",
"++++++++++++++++++++",
"++++++++++++++++++++",
"++++++++++++++++++++"};
