/* XPM */
static char * stick_pressed_xpm[] = {
"20 24 25 1",
" 	c None",
".	c #747474",
"+	c #6C6C6C",
"@	c #6B6B6B",
"#	c #6A6A6A",
"$	c #888887",
"%	c #898889",
"&	c #7F7E7F",
"*	c #939393",
"=	c #A2A2A2",
"-	c #989898",
";	c #858584",
">	c #898888",
",	c #929292",
"'	c #898989",
")	c #9A9A9A",
"!	c #9D9D9D",
"~	c #868787",
"{	c #8F8F8F",
"]	c #919191",
"^	c #7F7F7F",
"/	c #707070",
"(	c #888888",
"_	c #8A8A8A",
":	c #797979",
"....................",
"++++++++++++++++++++",
"++++++++++++++++++++",
"++++++++++++++++++++",
"++++++++++++++++++++",
"++++++++++++++++++++",
"++++++++++++++++++++",
"++++++++++++++++++++",
"++++++++++++++++++++",
"++++++++@++@++++++++",
"+++++++#.$%&++++++++",
"+++++++.*==-;+++++++",
"+++++++>====,+++++++",
"+++++++'====*+++++++",
"++++++++)==!~+++++++",
"+++++++++{]^++++++++",
"+++++++.++++/+++++++",
"++++++++.(_:++++++++",
"++++++++++++++++++++",
"++++++++++++++++++++",
"++++++++++++++++++++",
"++++++++++++++++++++",
"++++++++++++++++++++",
"++++++++++++++++++++"};
