/* XPM */
static char * stick_toggled_inactive_xpm[] = {
"20 24 42 1",
" 	c None",
".	c #747474",
"+	c #6C6C6C",
"@	c #6A6A6A",
"#	c #6B6B6B",
"$	c #696969",
"%	c #707070",
"&	c #7A7979",
"*	c #ADACAA",
"=	c #DBD7D3",
"-	c #DBD8D3",
";	c #BEBCB8",
">	c #8C8B8A",
",	c #DAD7D2",
"'	c #D5D1CC",
")	c #D8D4CF",
"!	c #A8A6A4",
"~	c #8E8D8C",
"{	c #DBD7D2",
"]	c #D5D2CD",
"^	c #D7D3CE",
"/	c #ABA9A7",
"(	c #C1BFBC",
"_	c #D7D4D0",
":	c #D7D3CF",
"<	c #CAC8C4",
"[	c #8B8B8A",
"}	c #A09F9D",
"|	c #A4A2A0",
"1	c #868686",
"2	c #969697",
"3	c #8C8C8C",
"4	c #8E8E8E",
"5	c #8D8D8E",
"6	c #8B8B8B",
"7	c #929191",
"8	c #858586",
"9	c #989898",
"0	c #B0B0B0",
"a	c #B2B2B2",
"b	c #9D9D9D",
"c	c #747575",
"....................",
"++++++++++++++++++++",
"++++++++++++++++++++",
"++++++++++++++++++++",
"++++++++++++++++++++",
"++++++++++++++++++++",
"++++++++++++++++++++",
"++++++++++++++++++++",
"++++++++++++++++++++",
"++++++++@++#++++++++",
"+++++++$+%&+++++++++",
"++++++++*=-;++++++++",
"+++++++>,'')!+++++++",
"+++++++~{']^/+++++++",
"++++++++(_:<[+++++++",
"+++++++++}|1++++++++",
"+++++++2345678++++++",
"++++++++90abc+++++++",
"++++++++++++++++++++",
"++++++++++++++++++++",
"++++++++++++++++++++",
"++++++++++++++++++++",
"++++++++++++++++++++",
"++++++++++++++++++++"};
