/* XPM */
static char * top_left_active_xpm[] = {
"8 24 3 1",
" 	c None",
".	c #747474",
"+	c #6C6C6C",
"     ...",
"   ..+++",
"  .+++++",
" +++++++",
" +++++++",
"++++++++",
"++++++++",
"++++++++",
"++++++++",
"++++++++",
"++++++++",
"++++++++",
"++++++++",
"++++++++",
"++++++++",
"++++++++",
"++++++++",
"++++++++",
"++++++++",
"++++++++",
"++++++++",
"++++++++",
"++++++++",
"++++++++"};
