<?xml version="1.0" encoding="UTF-8" standalone="no"?>
<!-- Created with Inkscape (http://www.inkscape.org/) -->

<svg
   xmlns:dc="http://purl.org/dc/elements/1.1/"
   xmlns:cc="http://creativecommons.org/ns#"
   xmlns:rdf="http://www.w3.org/1999/02/22-rdf-syntax-ns#"
   xmlns:svg="http://www.w3.org/2000/svg"
   xmlns="http://www.w3.org/2000/svg"
   xmlns:xlink="http://www.w3.org/1999/xlink"
   version="1.0"
   width="22"
   height="22"
   viewBox="0 0 16 16"
   id="Foreground"
   xml:space="preserve"><metadata
   id="metadata32"><rdf:RDF><cc:Work
       rdf:about=""><dc:format>image/svg+xml</dc:format><dc:type
         rdf:resource="http://purl.org/dc/dcmitype/StillImage" /><dc:title></dc:title></cc:Work></rdf:RDF></metadata><defs
   id="defs2397"><linearGradient
     id="linearGradient3798"><stop
       id="stop3800"
       style="stop-color:#ffffff;stop-opacity:1"
       offset="0" /><stop
       id="stop3802"
       style="stop-color:#ffffff;stop-opacity:0"
       offset="1" /></linearGradient><linearGradient
     id="linearGradient3786"><stop
       id="stop3788"
       style="stop-color:#d35c19;stop-opacity:1"
       offset="0" /><stop
       id="stop3790"
       style="stop-color:#ea854d;stop-opacity:1"
       offset="1" /></linearGradient><linearGradient
     x1="-3.5067198"
     y1="5.9266276"
     x2="-2.6926942"
     y2="19.369761"
     id="linearGradient3817"
     xlink:href="#linearGradient3798"
     gradientUnits="userSpaceOnUse" /><linearGradient
     x1="-4.5164962"
     y1="23.156378"
     x2="-4.3917108"
     y2="9.2180691"
     id="linearGradient3944"
     xlink:href="#linearGradient3786"
     gradientUnits="userSpaceOnUse" /><linearGradient
     x1="-4.5164962"
     y1="23.156378"
     x2="-4.3917108"
     y2="9.2180691"
     id="linearGradient3799"
     xlink:href="#linearGradient3786"
     gradientUnits="userSpaceOnUse"
     gradientTransform="matrix(0.78986187,0,0,0.75254548,12.615327,-4.9898517)" /></defs>

<g
   transform="matrix(1.0405157,0,0,1.0251195,0.94740757,-1.5276931)"
   id="g3707"
   style="opacity:0.63513513;stroke:#ffffff;stroke-opacity:1"><g
     transform="translate(-1.2664093,2.4710425)"
     id="g3695"
     style="stroke:#ffffff;stroke-opacity:1" /><g
     transform="translate(-1.2664093,2.4710425)"
     id="g3701"
     style="stroke:#ffffff;stroke-opacity:1" /></g><g
   transform="matrix(1.0838509,0,0,1.0355382,32.878751,-0.24399471)"
   id="g3721"
   style="opacity:0.77830188" /><g
   transform="matrix(1.0838509,0,0,1.0355382,31.12875,0.06850529)"
   id="g3715"
   style="opacity:0.77830188" />



<g
   transform="matrix(0.98586442,0,0,0.95696993,-0.0013332,0.59092345)"
   id="g3790"><path
     d="m 15.529818,7.8462887 a 7.4786922,7.3873294 0 1 1 -2e-6,-0.00542"
     id="path3015"
     style="fill:url(#linearGradient3799);fill-opacity:1;stroke:#2e2e2e;stroke-width:0.91345453;stroke-miterlimit:4;stroke-opacity:1;stroke-dasharray:none" /><rect
     width="16.069309"
     height="14.713755"
     rx="0.91824627"
     ry="0.84078604"
     x="-0.094315171"
     y="1.1317347"
     id="rect3612"
     style="opacity:0.69458127;fill:#ffffff;fill-opacity:0;stroke:none" /><rect
     width="16.069309"
     height="14.713755"
     rx="0.91824627"
     ry="0.84078604"
     x="-0.094315171"
     y="1.1317347"
     id="rect3793"
     style="opacity:0.69458127;fill:#ffffff;fill-opacity:0;stroke:none" /><path
     d="m 14.736065,7.8038831 a 6.6750877,6.5525402 0 1 1 -2e-6,-0.0048"
     id="path3794"
     style="opacity:0.20093456;fill:none;stroke:#ffffff;stroke-width:0.76230174;stroke-miterlimit:4;stroke-opacity:1;stroke-dasharray:none" /><g
     transform="scale(1.1771539,0.8495066)"
     id="text3782"
     style="font-size:9.19500828px;font-style:normal;font-variant:normal;font-weight:500;font-stretch:normal;line-height:125%;letter-spacing:0px;word-spacing:0px;fill:#303030;fill-opacity:1;stroke:#ffffff;stroke-width:0.05454545;stroke-miterlimit:4;stroke-opacity:1;font-family:Ubuntu;-inkscape-font-specification:Ubuntu Medium"><path
       d="M 8.4683793,12.436795 C 8.2906047,12.075125 8.0668598,11.676675 7.7971437,11.241444 7.5274198,10.806215 7.2454398,10.38631 6.9512029,9.981728 6.8285999,10.14111 6.6937399,10.33114 6.5466225,10.551819 6.4056299,10.7725 6.2615749,10.99931 6.1144571,11.232249 5.973465,11.45906 5.84167,11.67974 5.7190718,11.89429 5.59647,12.10884 5.49839,12.289675 5.4248315,12.436795 l -1.3148862,0 C 4.3857951,11.915745 4.7045551,11.382435 5.0662262,10.836864 5.427895,10.285165 5.820215,9.7089455 6.2431873,9.1082022 l -2.0412919,-3.0435477 1.3792513,0 1.4068362,2.179217 1.3884463,-2.179217 1.3240812,0 -2.0137068,3.0343527 c 0.4658762,0.6313933 0.8765861,1.2290678 1.2321311,1.7930268 0.3616649,0.563961 0.6650999,1.078881 0.9103058,1.544761 l -1.3608612,0"
       id="path3938"
       style="fill:#303030" /></g></g></svg>