<?xml version="1.0" encoding="UTF-8" standalone="no"?>
<!-- Created with Inkscape (http://www.inkscape.org/) -->

<svg
   xmlns:dc="http://purl.org/dc/elements/1.1/"
   xmlns:cc="http://creativecommons.org/ns#"
   xmlns:rdf="http://www.w3.org/1999/02/22-rdf-syntax-ns#"
   xmlns:svg="http://www.w3.org/2000/svg"
   xmlns="http://www.w3.org/2000/svg"
   xmlns:xlink="http://www.w3.org/1999/xlink"
   version="1.1"
   width="64"
   height="22"
   id="svg3273">
  <defs
     id="defs3275">
    <linearGradient
       id="linearGradient4102">
      <stop
         id="stop4104"
         style="stop-color:#692046;stop-opacity:1"
         offset="0" />
      <stop
         id="stop4106"
         style="stop-color:#962e64;stop-opacity:1"
         offset="1" />
    </linearGradient>
    <linearGradient
       id="linearGradient4095-9">
      <stop
         id="stop4097-5"
         style="stop-color:#131313;stop-opacity:1"
         offset="0" />
      <stop
         id="stop4099-2"
         style="stop-color:#131313;stop-opacity:0"
         offset="1" />
    </linearGradient>
    <linearGradient
       id="linearGradient3859-2">
      <stop
         id="stop3861-1"
         style="stop-color:#3c3b37;stop-opacity:1"
         offset="0" />
      <stop
         id="stop3863-9"
         style="stop-color:#4e4d49;stop-opacity:1"
         offset="1" />
    </linearGradient>
    <linearGradient
       x1="50.739952"
       y1="18.306555"
       x2="51.010571"
       y2="3.8964059"
       id="linearGradient4305"
       xlink:href="#linearGradient4102"
       gradientUnits="userSpaceOnUse" />
    <linearGradient
       x1="-17.784681"
       y1="9.8260183"
       x2="-11.504409"
       y2="9.6024895"
       id="linearGradient4307"
       xlink:href="#linearGradient4095-9"
       gradientUnits="userSpaceOnUse"
       gradientTransform="matrix(0.88797735,0,0,0.87902198,44.895626,2.3346908)" />
    <linearGradient
       x1="-47.059258"
       y1="20.14957"
       x2="-46.978706"
       y2="1.0181593"
       id="linearGradient4309"
       xlink:href="#linearGradient3859-2"
       gradientUnits="userSpaceOnUse"
       gradientTransform="matrix(0.9757771,0,0,0.98628529,63.348591,0.09987579)" />
  </defs>
  <metadata
     id="metadata3278">
    <rdf:RDF>
      <cc:Work
         rdf:about="">
        <dc:format>image/svg+xml</dc:format>
        <dc:type
           rdf:resource="http://purl.org/dc/dcmitype/StillImage" />
        <dc:title></dc:title>
      </cc:Work>
    </rdf:RDF>
  </metadata>
  <g
     id="g5125">
    <g
       transform="translate(0.20296172,0.02283978)"
       id="g3977">
      <rect
         width="63.000004"
         height="19"
         rx="4"
         ry="4"
         x="0.49999601"
         y="1.5"
         id="rect17456-3"
         style="color:#000000;fill:url(#linearGradient4305);fill-opacity:1;stroke:#282828;stroke-width:0.99999994;stroke-linecap:round;stroke-linejoin:miter;stroke-miterlimit:4;stroke-opacity:1;stroke-dasharray:none;stroke-dashoffset:0;marker:none;visibility:visible;display:inline;overflow:visible;enable-background:accumulate" />
      <rect
         width="61.470325"
         height="17.097975"
         rx="2.9653778"
         ry="3.0449691"
         x="1.0965401"
         y="2.4950619"
         id="rect3963-8"
         style="opacity:0.12396695;color:#000000;fill:none;stroke:#ffffff;stroke-width:0.93703973;stroke-linecap:round;stroke-linejoin:miter;stroke-miterlimit:4;stroke-opacity:1;stroke-dasharray:none;stroke-dashoffset:0;marker:none;visibility:visible;display:inline;overflow:visible;enable-background:accumulate" />
      <rect
         width="27.527298"
         height="17.580441"
         rx="3.5519094"
         ry="3.516088"
         x="6.4542465"
         y="2.0835137"
         id="rect4062-7"
         style="fill:url(#linearGradient4307);fill-opacity:1;stroke:none;display:inline" />
      <rect
         width="32.057007"
         height="21.6308"
         rx="4.1363883"
         ry="4.32616"
         x="0.13464338"
         y="0.066622458"
         id="rect4093-7"
         style="fill:#111111;fill-opacity:1;stroke:none;display:inline" />
      <rect
         width="30.24909"
         height="19.725706"
         rx="3.9031086"
         ry="3.9451411"
         x="1.02404"
         y="0.96162629"
         id="rect17458-6"
         style="fill:url(#linearGradient4309);fill-opacity:1;stroke:none;display:inline" />
      <rect
         width="29.285889"
         height="18.841696"
         rx="3.7788243"
         ry="3.5183392"
         x="1.4148053"
         y="1.3865503"
         id="rect4145-5"
         style="opacity:0.09813083;fill:none;stroke:#e2e2e2;stroke-width:0.96164936;stroke-opacity:1;display:inline" />
      <rect
         width="1.4207187"
         height="6.3594074"
         rx="1.8214506"
         ry="0"
         x="11.162791"
         y="7.5221987"
         id="rect3865-5"
         style="opacity:0.80841118;fill:#000000;fill-opacity:1;stroke:none" />
      <rect
         width="1.4207187"
         height="6.3594074"
         rx="1.8214506"
         ry="0"
         x="14.951375"
         y="7.5898519"
         id="rect3869-7"
         style="opacity:0.80841118;fill:#000000;fill-opacity:1;stroke:none" />
      <rect
         width="1.4207187"
         height="6.3594074"
         rx="1.8214506"
         ry="0"
         x="18.807611"
         y="7.5898519"
         id="rect3871-4"
         style="opacity:0.80841118;fill:#000000;fill-opacity:1;stroke:none" />
      <rect
         width="0.51678199"
         height="6.3594074"
         rx="0.66254699"
         ry="0"
         x="-13.100291"
         y="7.5221987"
         transform="scale(-1,1)"
         id="rect3877-3"
         style="opacity:0.80841118;fill:#6d6d6d;fill-opacity:1;stroke:none" />
      <rect
         width="0.51678199"
         height="6.3594074"
         rx="0.66254699"
         ry="0"
         x="-16.787792"
         y="7.5221987"
         transform="scale(-1,1)"
         id="rect3879-6"
         style="opacity:0.80841118;fill:#6d6d6d;fill-opacity:1;stroke:none" />
      <rect
         width="0.51678199"
         height="6.3594074"
         rx="0.66254699"
         ry="0"
         x="-20.725292"
         y="7.5221987"
         transform="scale(-1,1)"
         id="rect3881-3"
         style="opacity:0.80841118;fill:#6d6d6d;fill-opacity:1;stroke:none" />
    </g>
    <g
       id="text4610"
       style="font-size:14px;font-style:normal;font-variant:normal;font-weight:500;font-stretch:normal;line-height:125%;letter-spacing:0px;word-spacing:0px;fill:#ffffff;fill-opacity:1;stroke:none;font-family:Ubuntu;-inkscape-font-specification:Ubuntu Medium">
      <path
         d="m 44.413723,10.782592 c -3e-6,0.532004 0.06533,1.017337 0.196,1.456 0.130664,0.429336 0.31733,0.798002 0.56,1.106 0.251996,0.298668 0.555329,0.532001 0.91,0.7 0.354662,0.168001 0.755995,0.252001 1.204,0.252 0.438661,10e-7 0.835327,-0.084 1.19,-0.252 0.35466,-0.167999 0.653326,-0.401332 0.896,-0.7 0.251992,-0.307998 0.443325,-0.676664 0.574,-1.106 0.130658,-0.438663 0.195992,-0.923996 0.196,-1.456 -8e-6,-0.531995 -0.06534,-1.0126612 -0.196,-1.4420004 -0.130675,-0.4386599 -0.322008,-0.8073262 -0.574,-1.106 -0.242674,-0.3079923 -0.54134,-0.545992 -0.896,-0.714 -0.354673,-0.1679917 -0.751339,-0.2519916 -1.19,-0.252 -0.448005,8.4e-6 -0.849338,0.084008 -1.204,0.252 -0.354671,0.168008 -0.658004,0.4060077 -0.91,0.714 -0.24267,0.3080071 -0.429336,0.6766734 -0.56,1.106 -0.130669,0.4293392 -0.196003,0.9100054 -0.196,1.4420004 m 7.574,0 c -1e-5,0.83067 -0.12601,1.563336 -0.378,2.198 -0.242676,0.634668 -0.578676,1.166668 -1.008,1.596 -0.420008,0.42 -0.914675,0.737333 -1.484,0.952 -0.56934,0.214666 -1.176006,0.321999 -1.82,0.322 -0.644005,-1e-6 -1.255338,-0.107334 -1.834,-0.322 -0.569337,-0.214667 -1.068669,-0.532 -1.498,-0.952 -0.420002,-0.429332 -0.756001,-0.961332 -1.008,-1.596 -0.252001,-0.634664 -0.378001,-1.36733 -0.378,-2.198 -1e-6,-0.8306614 0.125999,-1.5586606 0.378,-2.1840004 0.251999,-0.634659 0.592665,-1.1666584 1.022,-1.596 0.438664,-0.4293242 0.942663,-0.7513239 1.512,-0.966 0.569329,-0.2146568 1.171328,-0.3219901 1.806,-0.322 0.63466,9.9e-6 1.23666,0.1073432 1.806,0.322 0.569325,0.2146761 1.063992,0.5366758 1.484,0.966 0.429324,0.4293416 0.76999,0.961341 1.022,1.596 0.25199,0.6253398 0.37799,1.353339 0.378,2.1840004"
         id="path5123" />
    </g>
  </g>
</svg>
