<?xml version="1.0" encoding="UTF-8" standalone="no"?>
<!-- Created with Inkscape (http://www.inkscape.org/) -->

<svg
   xmlns:dc="http://purl.org/dc/elements/1.1/"
   xmlns:cc="http://creativecommons.org/ns#"
   xmlns:rdf="http://www.w3.org/1999/02/22-rdf-syntax-ns#"
   xmlns:svg="http://www.w3.org/2000/svg"
   xmlns="http://www.w3.org/2000/svg"
   xmlns:xlink="http://www.w3.org/1999/xlink"
   xmlns:sodipodi="http://sodipodi.sourceforge.net/DTD/sodipodi-0.dtd"
   xmlns:inkscape="http://www.inkscape.org/namespaces/inkscape"
   width="24"
   height="24"
   id="svg4908"
   sodipodi:version="0.32"
   inkscape:version="0.48.2 r9819"
   sodipodi:docname="apple.svg"
   inkscape:output_extension="org.inkscape.output.svg.inkscape"
   inkscape:export-filename="/home/andreas/project/gnome-icon-theme/scalable/actions/process-stop.png"
   inkscape:export-xdpi="90"
   inkscape:export-ydpi="90"
   version="1.0">
  <defs
     id="defs4910">
    <linearGradient
       inkscape:collect="always"
       id="linearGradient3850">
      <stop
         style="stop-color:#000000;stop-opacity:1;"
         offset="0"
         id="stop3852" />
      <stop
         style="stop-color:#000000;stop-opacity:0;"
         offset="1"
         id="stop3854" />
    </linearGradient>
    <inkscape:perspective
       sodipodi:type="inkscape:persp3d"
       inkscape:vp_x="0 : 24 : 1"
       inkscape:vp_y="0 : 1000 : 0"
       inkscape:vp_z="48 : 24 : 1"
       inkscape:persp3d-origin="24 : 16 : 1"
       id="perspective25" />
    <linearGradient
       id="linearGradient5139">
      <stop
         id="stop5141"
         offset="0"
         style="stop-color:#000000;stop-opacity:0.55479455;" />
      <stop
         id="stop5143"
         offset="1"
         style="stop-color:black;stop-opacity:0;" />
    </linearGradient>
    <linearGradient
       id="linearGradient5151"
       inkscape:collect="always">
      <stop
         id="stop5153"
         offset="0"
         style="stop-color:white;stop-opacity:1;" />
      <stop
         id="stop5155"
         offset="1"
         style="stop-color:white;stop-opacity:0;" />
    </linearGradient>
    <linearGradient
       id="linearGradient5171">
      <stop
         id="stop5173"
         offset="0"
         style="stop-color:#fe3a00;stop-opacity:1" />
      <stop
         id="stop5175"
         offset="1"
         style="stop-color:#c00;stop-opacity:1;" />
    </linearGradient>
    <radialGradient
       inkscape:collect="always"
       xlink:href="#linearGradient5139"
       id="radialGradient3072"
       gradientUnits="userSpaceOnUse"
       gradientTransform="matrix(0.928125,0,0,0.3143011,0.7718789,12.358015)"
       cx="10.739184"
       cy="18.022524"
       fx="10.739184"
       fy="18.022524"
       r="9.0598059" />
    <radialGradient
       inkscape:collect="always"
       xlink:href="#linearGradient5151"
       id="radialGradient3074"
       gradientUnits="userSpaceOnUse"
       gradientTransform="matrix(2.417917,0,0,2.417917,-14.17917,-4.903184)"
       cx="10"
       cy="3.458019"
       fx="10"
       fy="3.458019"
       r="9.7785711" />
    <linearGradient
       inkscape:collect="always"
       xlink:href="#linearGradient3850"
       id="linearGradient3856"
       x1="6.3642111"
       y1="15.909287"
       x2="24.311576"
       y2="15.909287"
       gradientUnits="userSpaceOnUse" />
    <linearGradient
       inkscape:collect="always"
       xlink:href="#linearGradient3850"
       id="linearGradient3896"
       gradientUnits="userSpaceOnUse"
       x1="6.3642111"
       y1="15.909287"
       x2="24.311576"
       y2="15.909287" />
    <linearGradient
       inkscape:collect="always"
       xlink:href="#linearGradient3850"
       id="linearGradient3898"
       gradientUnits="userSpaceOnUse"
       x1="6.3642111"
       y1="15.909287"
       x2="24.311576"
       y2="15.909287" />
  </defs>
  <sodipodi:namedview
     id="base"
     pagecolor="#ffffff"
     bordercolor="#666666"
     borderopacity="1.0"
     inkscape:pageopacity="0.0"
     inkscape:pageshadow="2"
     inkscape:zoom="22.627417"
     inkscape:cx="15.84722"
     inkscape:cy="10.142308"
     inkscape:current-layer="g7001"
     showgrid="false"
     inkscape:grid-bbox="true"
     inkscape:document-units="px"
     showguides="true"
     inkscape:guide-bbox="true"
     inkscape:window-width="1668"
     inkscape:window-height="953"
     inkscape:window-x="0"
     inkscape:window-y="29"
     width="48px"
     height="48px"
     inkscape:window-maximized="0" />
  <metadata
     id="metadata4913">
    <rdf:RDF>
      <cc:Work
         rdf:about="">
        <dc:format>image/svg+xml</dc:format>
        <dc:type
           rdf:resource="http://purl.org/dc/dcmitype/StillImage" />
        <dc:title />
        <dc:date>December 2006</dc:date>
        <dc:creator>
          <cc:Agent>
            <dc:title>Jakub Steiner</dc:title>
          </cc:Agent>
        </dc:creator>
        <dc:contributor>
          <cc:Agent>
            <dc:title>Andreas Nilsson</dc:title>
          </cc:Agent>
        </dc:contributor>
        <cc:license
           rdf:resource="http://creativecommons.org/licenses/GPL/2.0/" />
        <dc:subject>
          <rdf:Bag>
            <rdf:li>stop</rdf:li>
            <rdf:li>halt</rdf:li>
          </rdf:Bag>
        </dc:subject>
      </cc:Work>
      <cc:License
         rdf:about="http://creativecommons.org/licenses/GPL/2.0/">
        <cc:permits
           rdf:resource="http://web.resource.org/cc/Reproduction" />
        <cc:permits
           rdf:resource="http://web.resource.org/cc/Distribution" />
        <cc:requires
           rdf:resource="http://web.resource.org/cc/Notice" />
        <cc:permits
           rdf:resource="http://web.resource.org/cc/DerivativeWorks" />
        <cc:requires
           rdf:resource="http://web.resource.org/cc/ShareAlike" />
        <cc:requires
           rdf:resource="http://web.resource.org/cc/SourceCode" />
      </cc:License>
    </rdf:RDF>
  </metadata>
  <g
     id="layer1"
     inkscape:label="Layer 1"
     inkscape:groupmode="layer"
     transform="translate(0,-24)">
    <g
       inkscape:label="Layer 1"
       id="g7001"
       transform="matrix(1.4566048,0,0,1.4455352,0.4112881,1.2324709)">
      <g
         id="g3772">
        <path
           inkscape:connector-curvature="0"
           sodipodi:nodetypes="ccssssssssccsssscsccssssccssccssssc"
           id="path3638"
           d="M 6.5493146,31.578209 C 5.4109684,31.226365 3.8204681,28.839693 3.2417003,26.614865 2.1205979,22.305267 4.9576367,18.672007 8.3472924,20.076384 c 0.9283884,0.384641 1.0018091,0.385581 2.0987866,0.02685 1.967183,-0.643307 3.779167,-0.230975 4.413061,1.00423 0.192994,0.376067 0.166481,0.447717 -0.371191,1.003128 -1.391342,1.437244 -1.250965,3.667895 0.3006,4.776643 0.658965,0.470898 0.681358,0.72672 0.162638,1.858019 -1.154485,2.517863 -2.327278,3.24382 -4.239255,2.624094 -0.9765624,-0.316532 -1.3630934,-0.301805 -2.4931364,0.09499 -0.8175402,0.287063 -1.0564348,0.30336 -1.669481,0.113875 z M 4.839639,23.611714 c 1.6966508,-1.699868 -3.0572475,0.305594 1.6162014,-1.657734 1.1617647,-0.488059 0.503685,-0.670528 -0.045881,-0.859219 -0.6953925,-0.238757 5.2086232,-1.06911 4.0300432,-0.681926 -1.170155,0.384418 -2.3138413,2.342013 -3.2313331,3.024897 -2.8093999,2.091023 -4.4370794,-1.49831 -3.7821734,2.204705 0.3351115,1.894839 -0.6423096,-1.02553 0.053757,-2.025017 0.4084599,-0.586505 0.6797402,0.675229 1.359386,-0.0057 z m 0.3734764,1.556946 c 0.3302263,-0.164616 -0.1695775,-1.630991 0.1366738,-1.887447 0.5458972,-0.457137 1.4140627,0.06933 2.5611412,-1.575371 0.1655582,-0.237382 1.1065307,-0.520047 2.7611136,0.540463 1.261267,0.808412 -2.5584842,1.014693 -3.795226,2.472572 C 5.48562,26.358828 3.7623512,25.891854 5.2131154,25.16866 z M 9.1088874,19.8509 C 8.6337805,19.120243 9.79774,17.152089 11.064609,16.543942 12.316806,15.942837 12.6569,16.244898 12.244122,17.59155 11.770751,19.135883 9.6416297,20.670196 9.1088874,19.8509 z m 1.8864236,-2.873511 c 0.391718,-0.257665 0.206037,-0.133709 0.365243,-0.223774 1.550603,-0.877194 0.582888,0.133117 0.274036,-0.149788 -0.247242,-0.226471 0.182479,0.06973 0.111976,0.138922 -0.346503,0.340058 0.322582,-0.819185 -0.10517,0.106579 -0.406162,0.879041 -1.617377,0.766956 -0.646085,0.128061 z"
           style="fill:#f5f5f5;fill-opacity:1;fill-rule:nonzero;stroke:none" />
      </g>
    </g>
  </g>
</svg>
